<svg width="1728" height="433" viewBox="0 0 1728 433" fill="none" xmlns="http://www.w3.org/2000/svg">
<g clip-path="url(#clip0_618_3342)">
<rect width="1728" height="433" fill="#001948"/>
<path d="M0 0L1284 0V79H0V0Z" fill="url(#paint0_linear_618_3342)" fill-opacity="0.3"/>
<path d="M934 433V0H997V433H934Z" fill="url(#paint1_linear_618_3342)" fill-opacity="0.5"/>
<path d="M0 199H1284V290H0V199Z" fill="url(#paint2_linear_618_3342)" fill-opacity="0.3"/>
<path d="M832 433V0H904V433H832Z" fill="url(#paint3_linear_618_3342)" fill-opacity="0.5"/>
<path d="M0 94H1284V185H0V94Z" fill="url(#paint4_linear_618_3342)" fill-opacity="0.3"/>
<path d="M1728 260H1149V303H1728V260Z" fill="url(#paint5_linear_618_3342)" fill-opacity="0.3"/>
<path d="M1728 368H1149V418H1728V368Z" fill="url(#paint6_linear_618_3342)" fill-opacity="0.3"/>
<path d="M1728 311H1149V361H1728V311Z" fill="url(#paint7_linear_618_3342)" fill-opacity="0.3"/>
<path d="M730 433V0H802V433H730Z" fill="url(#paint8_linear_618_3342)" fill-opacity="0.5"/>
</g>
<defs>
<linearGradient id="paint0_linear_618_3342" x1="34.4223" y1="433" x2="1627.03" y2="433" gradientUnits="userSpaceOnUse">
<stop stop-color="#3A0CA3"/>
<stop offset="1" stop-color="#0A192F" stop-opacity="0"/>
</linearGradient>
<linearGradient id="paint1_linear_618_3342" x1="802.002" y1="424.375" x2="802.002" y2="25.3015" gradientUnits="userSpaceOnUse">
<stop stop-color="#3A0CA3"/>
<stop offset="1" stop-color="#0A192F" stop-opacity="0"/>
</linearGradient>
<linearGradient id="paint2_linear_618_3342" x1="34.4223" y1="433" x2="1627.03" y2="433" gradientUnits="userSpaceOnUse">
<stop stop-color="#3A0CA3"/>
<stop offset="1" stop-color="#0A192F" stop-opacity="0"/>
</linearGradient>
<linearGradient id="paint3_linear_618_3342" x1="802.002" y1="424.375" x2="802.002" y2="25.3015" gradientUnits="userSpaceOnUse">
<stop stop-color="#3A0CA3"/>
<stop offset="1" stop-color="#0A192F" stop-opacity="0"/>
</linearGradient>
<linearGradient id="paint4_linear_618_3342" x1="34.4223" y1="433" x2="1627.03" y2="433" gradientUnits="userSpaceOnUse">
<stop stop-color="#3A0CA3"/>
<stop offset="1" stop-color="#0A192F" stop-opacity="0"/>
</linearGradient>
<linearGradient id="paint5_linear_618_3342" x1="34.4223" y1="433" x2="1627.03" y2="433" gradientUnits="userSpaceOnUse">
<stop stop-color="#3A0CA3"/>
<stop offset="1" stop-color="#0A192F" stop-opacity="0"/>
</linearGradient>
<linearGradient id="paint6_linear_618_3342" x1="34.4223" y1="433" x2="1627.03" y2="433" gradientUnits="userSpaceOnUse">
<stop stop-color="#3A0CA3"/>
<stop offset="1" stop-color="#0A192F" stop-opacity="0"/>
</linearGradient>
<linearGradient id="paint7_linear_618_3342" x1="34.4223" y1="433" x2="1627.03" y2="433" gradientUnits="userSpaceOnUse">
<stop stop-color="#3A0CA3"/>
<stop offset="1" stop-color="#0A192F" stop-opacity="0"/>
</linearGradient>
<linearGradient id="paint8_linear_618_3342" x1="802.002" y1="424.375" x2="802.002" y2="25.3015" gradientUnits="userSpaceOnUse">
<stop stop-color="#3A0CA3"/>
<stop offset="1" stop-color="#0A192F" stop-opacity="0"/>
</linearGradient>
<clipPath id="clip0_618_3342">
<rect width="1728" height="433" fill="white"/>
</clipPath>
</defs>
</svg>
