<svg width="338" height="101" viewBox="0 0 338 101" fill="none" xmlns="http://www.w3.org/2000/svg">
  <path
    d="M27.7884 11.0055C27.7884 8.03083 28.8441 5.43749 31.052 3.22949C33.2603 1.11749 35.9477 0.0615234 39.0201 0.0615234C42.092 0.0615234 44.7801 1.11749 46.9879 3.22949C49.1004 5.43749 50.252 8.03083 50.252 11.0055C50.252 14.0775 49.1004 16.6695 46.9879 18.7815C44.7801 20.9895 42.092 22.0455 39.0201 22.0455C35.9477 22.0455 33.2603 20.9895 31.052 18.7815C28.8441 16.6695 27.7884 14.0775 27.7884 11.0055Z"
    fill="#231F20"/>
  <path
    d="M54.2837 11.0055C54.2837 8.03083 55.34 5.43749 57.5477 3.22949C59.7556 1.11749 62.3483 0.0615234 65.516 0.0615234C68.5879 0.0615234 71.1801 1.11749 73.3879 3.22949C75.5963 5.43749 76.7477 8.03083 76.7477 11.0055C76.7477 14.0775 75.5963 16.6695 73.3879 18.7815C71.1801 20.9895 68.5879 22.0455 65.516 22.0455C62.3483 22.0455 59.7556 20.9895 57.5477 18.7815C55.34 16.6695 54.2837 14.0775 54.2837 11.0055Z"
    fill="#231F20"/>
  <path
    d="M27.7884 37.5015C27.7884 34.4295 28.8441 31.8375 31.052 29.7268C33.2603 27.6135 35.9477 26.4615 39.0201 26.4615C42.092 26.4615 44.7801 27.6135 46.9879 29.7268C49.1004 31.8375 50.252 34.4295 50.252 37.5015C50.252 40.5735 49.1004 43.1655 46.9879 45.2775C44.7801 47.3895 42.092 48.4455 39.0201 48.4455C35.9477 48.4455 33.2603 47.3895 31.052 45.2775C28.8441 43.1655 27.7884 40.5735 27.7884 37.5015Z"
    fill="#231F20"/>
  <path
    d="M0.908203 37.5015C0.908203 34.4295 2.05976 31.8375 4.2681 29.7268C6.47591 27.6135 9.16394 26.4615 12.3316 26.4615C15.4999 26.4615 18.1879 27.6135 20.3957 29.7268C22.604 31.8375 23.6597 34.4295 23.6597 37.5015C23.6597 40.4775 22.604 43.0695 20.3957 45.2775C18.1879 47.3895 15.4999 48.4455 12.3316 48.4455C9.16394 48.4455 6.47591 47.3895 4.2681 45.2775C2.05976 43.0695 0.908203 40.5735 0.908203 37.5015Z"
    fill="#231F20"/>
  <path
    d="M0.908203 63.6135C0.908203 60.4455 2.05976 57.8535 4.2681 55.6455C6.47591 53.4375 9.16394 52.3815 12.3316 52.3815C15.4999 52.3815 18.1879 53.4375 20.3957 55.6455C22.604 57.8535 23.6597 60.5415 23.6597 63.6135C23.6597 66.6855 22.604 69.3735 20.3957 71.4855C18.1879 73.6935 15.4999 74.8455 12.3316 74.8455C9.16394 74.8455 6.47591 73.6935 4.2681 71.4855C2.05976 69.3735 0.908203 66.6855 0.908203 63.6135Z"
    fill="#231F20"/>
  <path
    d="M27.7884 90.0908C27.7884 87.1148 28.8441 84.6188 31.052 82.5068C33.2603 80.3948 35.852 79.4348 39.0201 79.4348C42.092 79.4348 44.7801 80.3948 46.9879 82.5068C49.1004 84.6188 50.252 87.1148 50.252 90.0908C50.252 92.9708 49.1004 95.4668 46.9879 97.5788C44.7801 99.6908 42.092 100.747 39.0201 100.747C35.852 100.747 33.2603 99.6908 31.052 97.5788C28.8441 95.4668 27.7884 92.9708 27.7884 90.0908Z"
    fill="#231F20"/>
  <path
    d="M54.2837 63.6135C54.2837 60.4455 55.34 57.8535 57.5477 55.6455C59.7556 53.4375 62.3483 52.3815 65.516 52.3815C68.5879 52.3815 71.1801 53.4375 73.3879 55.6455C75.5963 57.8535 76.7477 60.4455 76.7477 63.6135C76.7477 66.6855 75.5963 69.3735 73.3879 71.5815C71.1801 73.6935 68.5879 74.8455 65.516 74.8455C62.3483 74.8455 59.7556 73.6935 57.5477 71.5815C55.34 69.3735 54.2837 66.6855 54.2837 63.6135Z"
    fill="#231F20"/>
  <path d="M91.628 21.8536H95.4681V2.75049H91.628V21.8536Z" fill="#231F20"/>
  <path
    d="M111.692 21.8536H108.044V14.7509C108.044 13.3095 108.044 12.3495 107.852 11.8695C107.66 11.4855 107.468 11.1015 107.084 10.9095C106.7 10.6215 106.316 10.5255 105.836 10.5255C105.164 10.5255 104.588 10.7175 104.108 11.0055C103.628 11.3895 103.244 11.8695 103.052 12.4455C102.86 12.9255 102.764 14.0775 102.764 15.6135V21.8536H99.1155V8.03086H102.572V10.0455C103.724 8.50954 105.26 7.74154 107.084 7.74154C107.852 7.74154 108.62 7.83752 109.292 8.12552C109.964 8.41352 110.444 8.79754 110.828 9.27754C111.115 9.66154 111.404 10.2375 111.5 10.8135C111.692 11.3895 111.692 12.1575 111.692 13.2135V21.8536Z"
    fill="#231F20"/>
  <path
    d="M114.188 17.9189L117.836 17.3415C118.028 18.0135 118.316 18.5895 118.796 18.9749C119.276 19.3575 119.948 19.5495 120.812 19.5495C121.772 19.5495 122.444 19.3575 122.924 18.9749C123.212 18.7815 123.404 18.3975 123.404 18.0135C123.404 17.7269 123.308 17.5335 123.115 17.3415C123.02 17.1495 122.541 16.9575 121.964 16.8628C118.988 16.1895 117.068 15.6135 116.3 15.0375C115.244 14.2695 114.668 13.3095 114.668 11.9655C114.668 10.7175 115.148 9.75751 116.108 8.89351C117.068 8.12551 118.508 7.74152 120.524 7.74152C122.348 7.74152 123.788 8.03085 124.748 8.60552C125.612 9.27752 126.284 10.1429 126.668 11.3895L123.212 11.9655C123.02 11.4855 122.732 11.0055 122.348 10.7175C121.868 10.4295 121.292 10.3335 120.524 10.3335C119.564 10.3335 118.892 10.4295 118.508 10.7175C118.22 10.9095 118.124 11.1989 118.124 11.4855C118.124 11.7735 118.22 11.9655 118.412 12.1575C118.796 12.3495 119.948 12.7335 121.868 13.2135C123.788 13.5975 125.132 14.1735 125.9 14.7509C126.668 15.4215 127.052 16.3815 127.052 17.5335C127.052 18.7815 126.572 19.8375 125.516 20.7975C124.46 21.6615 122.828 22.1429 120.812 22.1429C118.892 22.1429 117.453 21.7575 116.3 20.9895C115.244 20.2215 114.476 19.1655 114.188 17.9189Z"
    fill="#231F20"/>
  <path
    d="M136.652 8.03085V10.9095H134.156V16.4775C134.156 17.6295 134.156 18.3015 134.252 18.4935C134.252 18.6855 134.348 18.7815 134.54 18.9749C134.732 19.0695 134.924 19.0695 135.212 19.0695C135.5 19.0695 135.98 18.9749 136.652 18.7815L136.94 21.5655C136.076 21.9495 135.116 22.1429 134.06 22.1429C133.388 22.1429 132.812 22.0455 132.236 21.8535C131.756 21.5655 131.372 21.2775 131.084 20.9895C130.892 20.6055 130.7 20.1255 130.604 19.5495C130.508 19.0695 130.508 18.3015 130.508 16.9575V10.9095H128.78V8.03085H130.508V5.24553L134.156 3.13355V8.03085H136.652Z"
    fill="#231F20"/>
  <path d="M139.244 6.10954V2.75088H142.892V6.10954H139.244ZM139.244 21.8536V8.03086H142.892V21.8536H139.244Z"
        fill="#231F20"/>
  <path
    d="M152.972 8.03085V10.9095H150.476V16.4775C150.476 17.6295 150.476 18.3015 150.572 18.4935C150.572 18.6855 150.668 18.7815 150.86 18.9749C151.052 19.0695 151.244 19.0695 151.532 19.0695C151.82 19.0695 152.3 18.9749 152.972 18.7815L153.26 21.5655C152.396 21.9495 151.436 22.1429 150.38 22.1429C149.708 22.1429 149.132 22.0455 148.652 21.8535C148.076 21.5655 147.692 21.2775 147.404 20.9895C147.212 20.6055 147.02 20.1255 146.924 19.5495C146.828 19.0695 146.828 18.3015 146.828 16.9575V10.9095H145.1V8.03085H146.828V5.24553L150.476 3.13355V8.03085H152.972Z"
    fill="#231F20"/>
  <path
    d="M164.684 21.8535V19.7415C164.108 20.5095 163.436 21.0869 162.668 21.4695C161.804 21.9495 160.94 22.1429 160.076 22.1429C159.116 22.1429 158.252 21.9495 157.58 21.5655C156.812 21.1815 156.236 20.6055 155.948 19.8375C155.66 19.0695 155.468 18.1095 155.468 16.7655V8.03085H159.116V14.3655C159.116 16.2855 159.212 17.5335 159.308 17.9189C159.404 18.3975 159.692 18.6855 160.076 18.9749C160.364 19.2615 160.844 19.3575 161.42 19.3575C161.996 19.3575 162.572 19.1655 163.052 18.8775C163.628 18.4935 163.916 18.1095 164.108 17.5335C164.3 17.0535 164.396 15.8069 164.396 13.8855V8.03085H168.044V21.8535H164.684Z"
    fill="#231F20"/>
  <path
    d="M178.22 8.03085V10.9095H175.724V16.4775C175.724 17.6295 175.724 18.3015 175.724 18.4935C175.82 18.6855 175.916 18.7815 176.108 18.9749C176.204 19.0695 176.492 19.0695 176.684 19.0695C177.068 19.0695 177.548 18.9749 178.124 18.7815L178.508 21.5655C177.644 21.9495 176.684 22.1429 175.628 22.1429C174.956 22.1429 174.284 22.0455 173.804 21.8535C173.228 21.5655 172.844 21.2775 172.652 20.9895C172.364 20.6055 172.268 20.1255 172.172 19.5495C172.076 19.0695 171.98 18.3015 171.98 16.9575V10.9095H170.348V8.03085H171.98V5.24553L175.724 3.13355V8.03085H178.22Z"
    fill="#231F20"/>
  <path
    d="M97.6764 34.7175H101.324V37.3095C101.324 38.4615 101.228 39.2295 101.036 39.8068C100.844 40.4775 100.46 41.0535 99.9796 41.5335C99.4999 42.0135 98.828 42.3975 98.0597 42.6855L97.292 41.1495C98.0597 40.8629 98.5405 40.5735 98.9239 40.0935C99.2124 39.7095 99.404 39.1335 99.404 38.3655H97.6764V34.7175ZM91.5316 34.7175H95.1801V37.3095C95.1801 38.4615 95.0837 39.2295 94.8916 39.8068C94.6999 40.4775 94.316 41.0535 93.8359 41.5335C93.3561 42.0135 92.6843 42.3975 91.916 42.6855L91.1483 41.1495C91.916 40.8629 92.492 40.5735 92.7801 40.0935C93.0681 39.7095 93.2603 39.1335 93.2603 38.3655H91.5316V34.7175Z"
    fill="#231F20"/>
  <path
    d="M111.788 34.7175H115.628V46.8135C115.628 48.3495 115.436 49.5975 115.148 50.4615C114.764 51.6135 114.092 52.4775 113.132 53.1495C112.172 53.8215 110.924 54.1095 109.292 54.1095C107.372 54.1095 105.932 53.6295 104.972 52.5735C103.916 51.5175 103.436 49.9815 103.436 47.8695L106.988 47.4855C107.084 48.6375 107.18 49.4055 107.468 49.7895C107.948 50.4615 108.524 50.8455 109.388 50.8455C110.252 50.8455 110.828 50.6535 111.212 50.0775C111.596 49.5975 111.788 48.6375 111.788 47.1015V34.7175Z"
    fill="#231F20"/>
  <path
    d="M125.804 39.7095C127.916 39.7095 129.644 40.3815 130.892 41.7268C132.236 43.0695 132.908 44.7975 132.908 46.8135C132.908 48.9255 132.236 50.6535 130.892 52.0935C129.548 53.4375 127.82 54.1095 125.804 54.1095V51.1335C126.764 51.1335 127.628 50.7508 128.108 50.0775C128.78 49.3095 129.164 48.2548 129.164 46.9095C129.164 45.4695 128.78 44.5095 128.108 43.7415C127.628 42.9748 126.764 42.6855 125.804 42.6855V39.7095ZM118.604 46.7175C118.604 45.4695 118.892 44.3175 119.564 43.1655C120.14 42.0135 121.003 41.1495 122.06 40.5735C123.115 39.9975 124.364 39.7095 125.708 39.7095C125.804 39.7095 125.804 39.7095 125.804 39.7095V42.6855C125.804 42.6855 125.804 42.6855 125.708 42.6855C124.748 42.6855 123.98 42.9748 123.308 43.7415C122.732 44.5095 122.348 45.5655 122.348 46.9095C122.348 48.2548 122.732 49.3095 123.308 50.0775C123.98 50.7508 124.748 51.1335 125.708 51.1335C125.804 51.1335 125.804 51.1335 125.804 51.1335V54.1095C124.46 54.1095 123.308 53.8215 122.156 53.2455C121.003 52.6695 120.14 51.9015 119.564 50.7508C118.892 49.5975 118.604 48.2548 118.604 46.7175Z"
    fill="#231F20"/>
  <path
    d="M134.06 53.8215V50.9415L139.244 44.9895C140.108 44.0308 140.684 43.3575 141.164 42.9748C140.684 42.9748 140.108 42.9748 139.436 42.9748H134.54V39.9975H145.964V42.5895L140.684 48.6375L138.86 50.6535C139.916 50.6535 140.492 50.5575 140.78 50.5575H146.444V53.8215H134.06ZM135.884 34.4295H138.764L140.204 36.3495L141.74 34.4295H144.62L141.932 38.2695H138.572L135.884 34.4295Z"
    fill="#231F20"/>
  <path
    d="M156.62 49.4055L160.268 49.9815C159.884 51.3255 159.116 52.3815 158.06 53.0535C157.1 53.8215 155.852 54.1095 154.316 54.1095H154.22V51.4215H154.316C154.892 51.4215 155.372 51.2295 155.756 50.9415C156.14 50.6535 156.428 50.0775 156.62 49.4055ZM154.22 39.7095C156.14 39.7095 157.676 40.3815 158.828 41.7268C159.98 43.0695 160.556 45.1815 160.46 47.9655H154.22V45.7575H156.908C156.812 44.7015 156.62 43.8375 156.044 43.2615C155.66 42.7815 154.988 42.4935 154.22 42.4935V39.7095ZM154.22 54.1095C151.916 54.0135 150.092 53.2455 148.94 51.8068C148.076 50.5575 147.596 48.9255 147.596 47.0055C147.596 44.7015 148.172 42.9748 149.42 41.6295C150.572 40.2855 152.108 39.7095 153.932 39.7095C154.028 39.7095 154.124 39.7095 154.22 39.7095V42.4935C154.22 42.4935 154.22 42.4935 154.124 42.4935C153.356 42.4935 152.684 42.7815 152.204 43.3575C151.628 43.9335 151.436 44.7015 151.436 45.7575H154.22V47.9655H151.34C151.34 49.0215 151.628 49.8855 152.204 50.4615C152.78 51.0375 153.452 51.3255 154.22 51.4215V54.1095Z"
    fill="#231F20"/>
  <path
    d="M161.708 39.9975H163.724V38.9415C163.724 37.7895 163.82 36.9255 164.108 36.3495C164.3 35.7735 164.78 35.2935 165.452 34.9095C166.124 34.6215 166.988 34.4295 167.948 34.4295C169.004 34.4295 170.06 34.5255 171.02 34.9095L170.54 37.4055C169.964 37.3095 169.388 37.2135 168.812 37.2135C168.332 37.2135 167.948 37.3095 167.66 37.5975C167.468 37.7895 167.372 38.2695 167.372 39.0375V39.9975H170.06V42.8775H167.372V53.8215H163.724V42.8775H161.708V39.9975Z"
    fill="#231F20"/>
  <path
    d="M181.676 47.5815L185.42 47.1988C185.612 48.5415 186.092 49.4055 186.764 49.9815C187.436 50.6535 188.396 50.9415 189.548 50.9415C190.796 50.9415 191.756 50.6535 192.332 50.0775C193.004 49.5975 193.292 48.9255 193.292 48.2548C193.292 47.7735 193.196 47.3895 192.908 47.1015C192.62 46.8135 192.14 46.5255 191.564 46.3335C191.084 46.1428 190.028 45.8535 188.396 45.4695C186.38 44.9895 184.94 44.3175 184.076 43.5495C182.924 42.4935 182.348 41.2455 182.348 39.7095C182.348 38.7508 182.636 37.8855 183.116 37.0215C183.692 36.1575 184.46 35.4855 185.516 35.1015C186.572 34.6215 187.82 34.4295 189.26 34.4295C191.66 34.4295 193.484 34.9095 194.732 35.9655C195.884 37.0215 196.556 38.4615 196.652 40.1895L192.812 40.3815C192.62 39.3255 192.236 38.6535 191.66 38.2695C191.18 37.7895 190.316 37.5975 189.26 37.5975C188.108 37.5975 187.244 37.7895 186.668 38.2695C186.188 38.5575 185.996 38.9415 185.996 39.4215C185.996 39.9015 186.188 40.2855 186.572 40.6695C187.052 41.0535 188.3 41.4375 190.124 41.9188C192.044 42.3015 193.388 42.7815 194.252 43.2615C195.212 43.7415 195.884 44.4135 196.364 45.1815C196.94 46.0455 197.132 47.1015 197.132 48.2548C197.132 49.3095 196.844 50.3655 196.268 51.3255C195.596 52.2855 194.828 52.9575 193.676 53.4375C192.524 53.9188 191.18 54.1095 189.548 54.1095C187.148 54.1095 185.228 53.6295 183.98 52.4775C182.636 51.3255 181.868 49.6935 181.676 47.5815Z"
    fill="#231F20"/>
  <path
    d="M206.54 39.9975V42.8775H204.044V48.4455C204.044 49.5975 204.044 50.2695 204.044 50.4615C204.14 50.6535 204.236 50.7508 204.428 50.9415C204.524 51.0375 204.812 51.1335 205.004 51.1335C205.388 51.1335 205.868 50.9415 206.54 50.7508L206.828 53.5335C205.964 53.9188 205.004 54.1095 203.948 54.1095C203.276 54.1095 202.7 54.0135 202.124 53.8215C201.644 53.5335 201.164 53.2455 200.972 52.9575C200.684 52.5735 200.588 52.0935 200.492 51.5175C200.396 51.1335 200.3 50.2695 200.3 48.9255V42.8775H198.668V39.9975H200.3V37.2135L204.044 35.1015V39.9975H206.54Z"
    fill="#231F20"/>
  <path
    d="M216.812 49.4055L220.46 49.9815C219.98 51.3255 219.308 52.3815 218.252 53.0535C217.196 53.8215 215.948 54.1095 214.508 54.1095C214.508 54.1095 214.412 54.1095 214.316 54.1095V51.4215C214.412 51.4215 214.508 51.4215 214.508 51.4215C215.084 51.4215 215.564 51.2295 215.948 50.9415C216.332 50.6535 216.62 50.0775 216.812 49.4055ZM214.316 39.7095C216.236 39.7095 217.868 40.3815 219.02 41.7268C220.172 43.0695 220.748 45.1815 220.652 47.9655H214.316V45.7575H217.004C217.004 44.7015 216.716 43.8375 216.236 43.2615C215.66 42.7815 215.084 42.4935 214.316 42.4935V39.7095ZM214.316 54.1095C211.916 54.0135 210.284 53.2455 209.132 51.8068C208.172 50.5575 207.788 48.9255 207.788 47.0055C207.788 44.7015 208.364 42.9748 209.516 41.6295C210.764 40.2855 212.3 39.7095 214.124 39.7095C214.22 39.7095 214.22 39.7095 214.316 39.7095V42.4935C213.548 42.4935 212.876 42.7815 212.3 43.3575C211.82 43.9335 211.532 44.7015 211.532 45.7575H214.316V47.9655H211.532C211.532 49.0215 211.82 49.8855 212.396 50.4615C212.972 51.0375 213.548 51.3255 214.316 51.4215V54.1095Z"
    fill="#231F20"/>
  <path
    d="M221.804 39.9975H223.916V38.9415C223.916 37.7895 224.012 36.9255 224.204 36.3495C224.492 35.7735 224.972 35.2935 225.644 34.9095C226.316 34.6215 227.084 34.4295 228.14 34.4295C229.196 34.4295 230.156 34.5255 231.212 34.9095L230.732 37.4055C230.156 37.3095 229.58 37.2135 229.004 37.2135C228.524 37.2135 228.14 37.3095 227.852 37.5975C227.66 37.7895 227.564 38.2695 227.564 39.0375V39.9975H230.252V42.8775H227.564V53.8215H223.916V42.8775H221.804V39.9975Z"
    fill="#231F20"/>
  <path
    d="M237.26 39.7095C237.356 39.7095 237.452 39.7095 237.548 39.7095C239.18 39.7095 240.332 39.9015 241.196 40.2855C241.964 40.6695 242.54 41.1495 242.828 41.7268C243.212 42.3015 243.308 43.4535 243.308 44.9895V49.3095C243.308 50.4615 243.308 51.4215 243.5 51.9975C243.596 52.5735 243.788 53.1495 244.172 53.8215H240.524C240.428 53.5335 240.332 53.2455 240.14 52.7655C240.14 52.4775 240.044 52.3815 240.044 52.2855C239.372 52.9575 238.7 53.3415 238.028 53.6295C237.836 53.7268 237.548 53.8215 237.26 53.9188V51.5175C237.74 51.4215 238.316 51.2295 238.7 50.9415C239.18 50.5575 239.468 50.1735 239.564 49.6935C239.66 49.4055 239.756 48.8295 239.756 47.8695V47.1988C239.276 47.2935 238.508 47.4855 237.548 47.7735C237.452 47.7735 237.356 47.7735 237.26 47.7735V45.4695C238.412 45.1815 239.276 44.9895 239.756 44.7975V44.4135C239.756 43.7415 239.564 43.2615 239.18 42.9748C238.892 42.5895 238.22 42.4935 237.26 42.4935V39.7095ZM234.86 44.2215L231.5 43.6455C231.884 42.3015 232.556 41.2455 233.42 40.6695C234.38 39.9975 235.628 39.7095 237.26 39.7095V42.4935C236.588 42.4935 236.108 42.5895 235.724 42.8775C235.34 43.1655 235.052 43.5495 234.86 44.2215ZM237.26 53.9188C236.78 54.0135 236.3 54.1095 235.724 54.1095C234.284 54.1095 233.228 53.7268 232.364 52.9575C231.596 52.1895 231.116 51.2295 231.116 50.0775C231.116 49.2135 231.308 48.5415 231.692 47.9655C232.076 47.2935 232.556 46.9095 233.228 46.5255C233.9 46.2375 234.956 45.9495 236.204 45.6615C236.588 45.5655 236.972 45.4695 237.26 45.4695V47.7735C236.396 47.9655 235.82 48.1575 235.532 48.3495C235.052 48.7335 234.764 49.1175 234.764 49.6935C234.764 50.1735 234.956 50.6535 235.34 50.9415C235.724 51.3255 236.204 51.5175 236.876 51.5175C237.068 51.5175 237.164 51.5175 237.26 51.5175V53.9188Z"
    fill="#231F20"/>
  <path
    d="M259.34 53.8215H255.692V46.7175C255.692 45.2775 255.596 44.3175 255.404 43.8375C255.212 43.4535 255.02 43.0695 254.636 42.8775C254.252 42.5895 253.868 42.4935 253.388 42.4935C252.716 42.4935 252.14 42.6855 251.66 42.9748C251.18 43.3575 250.796 43.8375 250.604 44.4135C250.412 44.9895 250.316 46.0455 250.316 47.5815V53.8215H246.668V39.9975H250.124V42.0135C251.276 40.4775 252.812 39.7095 254.636 39.7095C255.5 39.7095 256.172 39.8068 256.844 40.0935C257.516 40.3815 257.996 40.7655 258.38 41.2455C258.764 41.6295 258.956 42.2055 259.052 42.7815C259.244 43.3575 259.34 44.1255 259.34 45.1815V53.8215Z"
    fill="#231F20"/>
  <path
    d="M268.652 34.7175H272.396V37.3095C272.396 38.4615 272.3 39.2295 272.108 39.8068C271.916 40.4775 271.532 41.0535 271.052 41.5335C270.476 42.0135 269.9 42.3975 269.132 42.6855L268.364 41.1495C269.132 40.8629 269.612 40.5735 269.996 40.0935C270.284 39.7095 270.476 39.1335 270.476 38.3655H268.652V34.7175ZM262.508 34.7175H266.252V37.3095C266.252 38.4615 266.156 39.2295 265.964 39.8068C265.772 40.4775 265.388 41.0535 264.908 41.5335C264.428 42.0135 263.756 42.3975 262.988 42.6855L262.22 41.1495C262.988 40.8629 263.468 40.5735 263.852 40.0935C264.14 39.7095 264.332 39.1335 264.332 38.3655H262.508V34.7175Z"
    fill="#231F20"/>
  <path d="M91.8201 85.7895V66.8775H95.7556V82.6215H105.26V85.7895H91.8201Z" fill="#231F20"/>
  <path
    d="M107.756 70.1428V66.7815H111.404V70.1428H107.756ZM111.404 71.9655V85.4055C111.404 87.1335 111.308 88.3815 111.02 89.1495C110.828 89.8215 110.348 90.3975 109.676 90.7815C109.1 91.2615 108.236 91.4535 107.18 91.4535C106.892 91.4535 106.412 91.4535 106.028 91.3575C105.644 91.2615 105.164 91.1655 104.684 91.0695L105.356 87.9015C105.453 87.9975 105.644 87.9975 105.836 87.9975C105.932 87.9975 106.124 87.9975 106.22 87.9975C106.604 87.9975 106.892 87.9975 107.18 87.8068C107.372 87.6135 107.564 87.4215 107.66 87.2295C107.66 87.0375 107.756 86.3655 107.756 85.2135V71.9655H111.404Z"
    fill="#231F20"/>
  <path
    d="M124.076 85.7895V83.7735C123.596 84.5415 122.924 85.1175 122.156 85.5015C121.292 85.8855 120.429 86.1735 119.564 86.1735C118.604 86.1735 117.74 85.9815 117.068 85.5015C116.3 85.1175 115.724 84.5415 115.436 83.7735C115.052 83.1015 114.956 82.0455 114.956 80.7015V71.9655H118.604V78.3975C118.604 80.3175 118.7 81.4695 118.796 81.9495C118.892 82.3335 119.18 82.7175 119.564 83.0055C119.852 83.1989 120.332 83.3895 120.908 83.3895C121.484 83.3895 122.06 83.1989 122.541 82.8135C123.02 82.5255 123.404 82.0455 123.596 81.5655C123.788 81.0869 123.884 79.8375 123.884 77.8215V71.9655H127.532V85.7895H124.076Z"
    fill="#231F20"/>
  <path
    d="M137.612 71.7735C137.996 71.6775 138.284 71.6775 138.572 71.6775C140.3 71.6775 141.644 72.2549 142.796 73.5015C143.852 74.7509 144.428 76.4775 144.428 78.7815C144.428 81.1815 143.852 82.9095 142.796 84.2549C141.644 85.5015 140.3 86.1735 138.668 86.1735C138.38 86.1735 137.996 86.0775 137.612 86.0775V83.2935C137.708 83.2935 137.804 83.2935 137.804 83.2935C138.572 83.2935 139.244 82.9095 139.82 82.2375C140.396 81.5655 140.684 80.4135 140.684 78.9749C140.684 77.3415 140.396 76.2855 139.82 75.5175C139.244 74.8455 138.572 74.4615 137.612 74.4615V71.7735ZM130.988 85.7895V66.7815H134.636V73.5975C135.5 72.6375 136.556 71.9655 137.612 71.7735V74.4615C136.748 74.4615 135.98 74.8455 135.5 75.5175C134.828 76.1895 134.54 77.2455 134.54 78.5895C134.54 80.0309 134.828 81.0868 135.212 81.7575C135.884 82.6215 136.652 83.1989 137.612 83.2935V86.0775C137.228 85.9815 136.844 85.7895 136.364 85.5975C135.596 85.1175 134.924 84.5415 134.348 83.7735V85.7895H130.988Z"
    fill="#231F20"/>
  <path d="M147.212 85.7895H150.86V66.7811H147.212V85.7895Z" fill="#231F20"/>
  <path
    d="M154.316 70.1428V66.7815H157.964V70.1428H154.316ZM157.964 71.9655V85.4055C157.964 87.1335 157.868 88.3815 157.58 89.1495C157.388 89.8215 156.908 90.3975 156.332 90.7815C155.66 91.2615 154.796 91.4535 153.836 91.4535C153.452 91.4535 153.068 91.4535 152.588 91.3575C152.204 91.2615 151.724 91.1655 151.244 91.0695L151.916 87.9015C152.108 87.9975 152.204 87.9975 152.396 87.9975C152.492 87.9975 152.684 87.9975 152.78 87.9975C153.164 87.9975 153.452 87.9975 153.74 87.8068C153.932 87.6135 154.124 87.4215 154.22 87.2295C154.316 87.0375 154.316 86.3655 154.316 85.2135V71.9655H157.964Z"
    fill="#231F20"/>
  <path
    d="M166.796 71.6775C166.892 71.6775 166.988 71.6775 166.988 71.6775C168.62 71.6775 169.868 71.8695 170.636 72.2549C171.404 72.6375 171.98 73.1175 172.364 73.7895C172.652 74.3655 172.844 75.4215 172.844 77.0535L172.748 81.2775C172.748 82.5255 172.844 83.3895 172.94 83.9655C173.036 84.5415 173.324 85.2135 173.612 85.7895H169.964C169.868 85.5975 169.772 85.2135 169.676 84.7335C169.58 84.5415 169.58 84.3495 169.484 84.3495C168.908 84.9255 168.236 85.4055 167.468 85.6935C167.276 85.7895 167.084 85.8855 166.796 85.9815V83.5815C167.276 83.4855 167.852 83.2935 168.236 82.9095C168.62 82.6215 168.908 82.1428 169.1 81.6615C169.196 81.3735 169.196 80.7975 169.196 79.9335V79.1655C168.716 79.3575 168.044 79.5495 166.988 79.7415C166.988 79.7415 166.892 79.7415 166.796 79.7415V77.4375C167.948 77.1495 168.716 76.9575 169.196 76.7655V76.4775C169.196 75.7095 169.004 75.2295 168.716 74.9415C168.332 74.6535 167.756 74.4615 166.796 74.4615V71.6775ZM164.3 76.1895L161.036 75.6135C161.42 74.2695 161.996 73.3095 162.956 72.6375C163.82 71.9655 165.068 71.6775 166.796 71.6775V74.4615C166.796 74.4615 166.796 74.4615 166.7 74.4615C166.124 74.4615 165.548 74.6535 165.26 74.8455C164.876 75.1335 164.588 75.6135 164.3 76.1895ZM166.796 85.9815C166.316 86.0775 165.836 86.1735 165.26 86.1735C163.82 86.1735 162.668 85.7895 161.9 85.0215C161.036 84.2549 160.652 83.1989 160.652 82.0455C160.652 81.2775 160.844 80.6055 161.228 79.9335C161.516 79.3575 162.092 78.8775 162.764 78.5895C163.436 78.2055 164.396 77.9188 165.644 77.7268C166.124 77.6295 166.412 77.5335 166.796 77.4375V79.7415C165.932 79.9335 165.356 80.2215 164.972 80.4135C164.492 80.7015 164.3 81.1815 164.3 81.6615C164.3 82.2375 164.492 82.6215 164.876 83.0055C165.26 83.3895 165.74 83.5815 166.316 83.5815C166.508 83.5815 166.604 83.5815 166.796 83.5815V85.9815Z"
    fill="#231F20"/>
  <path
    d="M188.78 85.7895H185.132V78.7815C185.132 77.2455 185.036 76.2855 184.94 75.9015C184.748 75.4215 184.46 75.1335 184.172 74.8455C183.788 74.6535 183.404 74.4615 182.924 74.4615C182.252 74.4615 181.676 74.6535 181.196 75.0375C180.62 75.3255 180.332 75.8068 180.14 76.3815C179.948 76.9575 179.852 78.0135 179.852 79.5495V85.7895H176.204V71.9655H179.564V73.9815C180.812 72.4455 182.348 71.6775 184.172 71.6775C184.94 71.6775 185.708 71.8695 186.38 72.1575C187.052 72.4455 187.532 72.8295 187.916 73.2135C188.204 73.6935 188.492 74.1735 188.588 74.7509C188.684 75.3255 188.78 76.1895 188.78 77.2455V85.7895Z"
    fill="#231F20"/>
  <path
    d="M197.516 71.6775C197.612 71.6775 197.708 71.6775 197.708 71.6775C199.34 71.6775 200.588 71.8695 201.356 72.2549C202.124 72.6375 202.7 73.1175 203.084 73.7895C203.372 74.3655 203.564 75.4215 203.564 77.0535L203.468 81.2775C203.468 82.5255 203.564 83.3895 203.66 83.9655C203.756 84.5415 204.044 85.2135 204.332 85.7895H200.684C200.588 85.5975 200.492 85.2135 200.396 84.7335C200.3 84.5415 200.204 84.3495 200.204 84.3495C199.628 84.9255 198.956 85.4055 198.188 85.6935C197.996 85.7895 197.804 85.8855 197.516 85.9815V83.5815C197.996 83.4855 198.476 83.2935 198.956 82.9095C199.34 82.6215 199.628 82.1428 199.82 81.6615C199.916 81.3735 199.916 80.7975 199.916 79.9335V79.1655C199.436 79.3575 198.764 79.5495 197.708 79.7415C197.708 79.7415 197.612 79.7415 197.516 79.7415V77.4375C198.668 77.1495 199.436 76.9575 199.916 76.7655V76.4775C199.916 75.7095 199.724 75.2295 199.436 74.9415C199.052 74.6535 198.476 74.4615 197.516 74.4615V71.6775ZM195.02 76.1895L191.756 75.6135C192.044 74.2695 192.716 73.3095 193.676 72.6375C194.54 71.9655 195.788 71.6775 197.516 71.6775V74.4615C197.516 74.4615 197.516 74.4615 197.42 74.4615C196.844 74.4615 196.268 74.6535 195.884 74.8455C195.596 75.1335 195.308 75.6135 195.02 76.1895ZM197.516 85.9815C197.036 86.0775 196.556 86.1735 195.98 86.1735C194.54 86.1735 193.388 85.7895 192.524 85.0215C191.756 84.2549 191.372 83.1989 191.372 82.0455C191.372 81.2775 191.564 80.6055 191.948 79.9335C192.236 79.3575 192.812 78.8775 193.484 78.5895C194.156 78.2055 195.116 77.9188 196.364 77.7268C196.844 77.6295 197.132 77.5335 197.516 77.4375V79.7415C196.652 79.9335 196.076 80.2215 195.692 80.4135C195.212 80.7015 195.02 81.1815 195.02 81.6615C195.02 82.2375 195.212 82.6215 195.596 83.0055C195.98 83.3895 196.46 83.5815 197.036 83.5815C197.228 83.5815 197.324 83.5815 197.516 83.5815V85.9815Z"
    fill="#231F20"/>
  <path
    d="M206.828 82.1428H210.476V84.8295C210.476 85.8855 210.38 86.6535 210.188 87.3255C210.092 87.9015 209.708 88.4775 209.228 88.9575C208.652 89.4375 208.076 89.8215 207.212 90.1095L206.54 88.5735C207.308 88.3815 207.788 87.9975 208.076 87.6135C208.46 87.1335 208.556 86.5575 208.652 85.7895H206.828V82.1428Z"
    fill="#231F20"/>
  <path
    d="M223.724 79.6455L227.468 79.2615C227.66 80.5095 228.14 81.4695 228.812 82.0455C229.484 82.6215 230.444 82.9095 231.596 82.9095C232.844 82.9095 233.804 82.6215 234.476 82.1429C235.052 81.5655 235.436 80.9895 235.436 80.3175C235.436 79.8375 235.244 79.4535 234.956 79.1655C234.764 78.7815 234.284 78.4935 233.612 78.3015C233.132 78.1095 232.076 77.8215 230.54 77.4375C228.428 76.9575 226.988 76.2855 226.124 75.6135C224.972 74.5575 224.396 73.2135 224.396 71.7735C224.396 70.8135 224.684 69.8535 225.26 68.9895C225.74 68.1255 226.604 67.5495 227.66 67.0695C228.62 66.5895 229.868 66.3975 231.404 66.3975C233.804 66.3975 235.532 66.9749 236.78 68.0309C238.028 69.0869 238.604 70.4295 238.7 72.1575L234.86 72.3495C234.668 71.3895 234.284 70.7175 233.804 70.2375C233.228 69.8535 232.46 69.5655 231.308 69.5655C230.252 69.5655 229.292 69.8535 228.716 70.3335C228.332 70.6215 228.14 71.0055 228.14 71.4855C228.14 71.9655 228.236 72.3495 228.716 72.6375C229.196 73.0215 230.348 73.5015 232.172 73.8855C234.092 74.3655 235.436 74.8455 236.396 75.3255C237.26 75.8068 237.932 76.3815 238.508 77.2455C238.988 78.0135 239.276 79.0695 239.276 80.2215C239.276 81.3735 238.892 82.4295 238.316 83.2935C237.74 84.2549 236.876 85.0215 235.724 85.5015C234.668 85.9815 233.228 86.1735 231.596 86.1735C229.196 86.1735 227.372 85.5975 226.028 84.5415C224.78 83.3895 224.012 81.7575 223.724 79.6455Z"
    fill="#231F20"/>
  <path d="M242.252 85.7895H245.9V66.7811H242.252V85.7895Z" fill="#231F20"/>
  <path
    d="M255.788 71.6775C257.9 71.6775 259.628 72.3495 260.876 73.6935C262.22 75.0375 262.892 76.7655 262.892 78.8775C262.892 80.9895 262.22 82.7175 260.876 84.0615C259.532 85.5015 257.804 86.1735 255.788 86.1735V83.1989C256.652 83.1989 257.516 82.8135 258.188 82.0455C258.764 81.3735 259.148 80.3175 259.148 78.8775C259.148 77.5335 258.764 76.4775 258.188 75.8069C257.516 75.0375 256.652 74.6535 255.788 74.6535V71.6775ZM248.588 78.6855C248.588 77.5335 248.876 76.2855 249.548 75.2295C250.124 74.0775 250.988 73.2135 252.044 72.5415C253.1 71.9655 254.348 71.6775 255.692 71.6775C255.788 71.6775 255.788 71.6775 255.788 71.6775V74.6535C254.828 74.6535 253.964 75.0375 253.388 75.8069C252.716 76.4775 252.332 77.5335 252.332 78.8775C252.332 80.3175 252.716 81.3735 253.388 82.0455C253.964 82.8135 254.828 83.1989 255.788 83.1989V86.1735C254.444 86.1735 253.292 85.8855 252.14 85.3095C250.988 84.7335 250.124 83.8695 249.548 82.7175C248.876 81.6615 248.588 80.3175 248.588 78.6855Z"
    fill="#231F20"/>
  <path
    d="M269.324 85.7895L263.756 71.9655H267.596L270.188 79.0695L270.956 81.3735C271.148 80.7975 271.34 80.4135 271.34 80.2215C271.436 79.8375 271.628 79.4535 271.724 79.0695L274.412 71.9655H278.156L272.684 85.7895H269.324Z"
    fill="#231F20"/>
  <path
    d="M288.14 81.4695L291.788 82.0455C291.308 83.3895 290.636 84.3495 289.58 85.1175C288.62 85.7895 287.276 86.1735 285.836 86.1735H285.74V83.3895H285.836C286.412 83.3895 286.892 83.2935 287.276 82.9095C287.66 82.6215 287.948 82.1429 288.14 81.4695ZM285.74 71.6775C287.66 71.6775 289.196 72.3495 290.348 73.6935C291.5 75.0375 292.076 77.1495 291.98 79.9335H285.74V77.7268H288.428C288.332 76.6695 288.044 75.9015 287.564 75.3255C287.18 74.7508 286.508 74.4615 285.74 74.4615V71.6775ZM285.74 86.1735C283.436 86.0775 281.612 85.2135 280.46 83.7735C279.596 82.5255 279.116 80.9895 279.116 78.9749C279.116 76.7655 279.692 74.9415 280.94 73.5975C282.092 72.3495 283.628 71.6775 285.452 71.6775C285.548 71.6775 285.644 71.6775 285.74 71.6775V74.4615C285.74 74.4615 285.74 74.4615 285.644 74.4615C284.876 74.4615 284.204 74.7508 283.724 75.3255C283.148 75.9015 282.86 76.7655 282.956 77.7268H285.74V79.9335H282.86C282.86 81.0869 283.148 81.9495 283.724 82.5255C284.3 83.0055 284.972 83.2935 285.74 83.3895V86.1735Z"
    fill="#231F20"/>
  <path
    d="M307.34 85.7895H303.692V78.7815C303.692 77.2455 303.596 76.2855 303.5 75.9015C303.308 75.4215 303.02 75.1335 302.732 74.8455C302.348 74.6535 301.964 74.4615 301.484 74.4615C300.812 74.4615 300.236 74.6535 299.756 75.0375C299.276 75.3255 298.892 75.8068 298.7 76.3815C298.508 76.9575 298.412 78.0135 298.412 79.5495V85.7895H294.764V71.9655H298.124V73.9815C299.372 72.4455 300.908 71.6775 302.732 71.6775C303.5 71.6775 304.268 71.8695 304.94 72.1575C305.612 72.4455 306.092 72.8295 306.476 73.2135C306.764 73.6935 307.052 74.1735 307.148 74.7509C307.34 75.3255 307.34 76.1895 307.34 77.2455V85.7895Z"
    fill="#231F20"/>
  <path d="M310.892 70.1428V66.7815H314.54V70.1428H310.892ZM310.892 85.7895V71.9655H314.54V85.7895H310.892Z"
        fill="#231F20"/>
  <path
    d="M317.996 70.1428V66.7815H321.548V70.1428H317.996ZM321.548 71.9655V85.4055C321.548 87.1335 321.452 88.3815 321.26 89.1495C320.972 89.8215 320.588 90.3975 319.916 90.7815C319.244 91.2615 318.476 91.4535 317.516 91.4535C317.132 91.4535 316.748 91.4535 316.268 91.3575C315.884 91.2615 315.404 91.1655 314.924 91.0695L315.596 87.9015C315.788 87.9975 315.884 87.9975 316.076 87.9975C316.268 87.9975 316.364 87.9975 316.46 87.9975C316.844 87.9975 317.132 87.9975 317.42 87.8068C317.612 87.6135 317.804 87.4215 317.9 87.2295C317.996 87.0375 317.996 86.3655 317.996 85.2135V71.9655H321.548Z"
    fill="#231F20"/>
  <path
    d="M330.38 71.6775C330.476 71.6775 330.572 71.6775 330.572 71.6775C332.204 71.6775 333.452 71.8695 334.221 72.2549C335.084 72.6375 335.564 73.1175 335.948 73.7895C336.236 74.3655 336.428 75.4215 336.428 77.0535L336.333 81.2775C336.333 82.5255 336.428 83.3895 336.524 83.9655C336.62 84.5415 336.908 85.2135 337.196 85.7895H333.548C333.452 85.5975 333.356 85.2135 333.26 84.7335C333.165 84.5415 333.165 84.3495 333.068 84.3495C332.492 84.9255 331.82 85.4055 331.148 85.6935C330.956 85.7895 330.668 85.8855 330.38 85.9815V83.5815C330.86 83.4855 331.436 83.2935 331.82 82.9095C332.204 82.6215 332.492 82.1428 332.684 81.6615C332.78 81.3735 332.78 80.7975 332.78 79.9335V79.1655C332.396 79.3575 331.628 79.5495 330.572 79.7415C330.572 79.7415 330.476 79.7415 330.38 79.7415V77.4375C331.532 77.1495 332.396 76.9575 332.78 76.7655V76.4775C332.78 75.7095 332.684 75.2295 332.3 74.9415C331.916 74.6535 331.34 74.4615 330.38 74.4615V71.6775ZM327.885 76.1895L324.62 75.6135C325.004 74.2695 325.58 73.3095 326.54 72.6375C327.404 71.9655 328.748 71.6775 330.38 71.6775V74.4615C329.708 74.4615 329.132 74.6535 328.844 74.8455C328.46 75.1335 328.172 75.6135 327.885 76.1895ZM330.38 85.9815C329.9 86.0775 329.42 86.1735 328.844 86.1735C327.404 86.1735 326.252 85.7895 325.484 85.0215C324.62 84.2549 324.236 83.1989 324.236 82.0455C324.236 81.2775 324.428 80.6055 324.812 79.9335C325.196 79.3575 325.676 78.8775 326.348 78.5895C327.02 78.2055 327.98 77.9188 329.228 77.7268C329.708 77.6295 329.997 77.5335 330.38 77.4375V79.7415C329.516 79.9335 328.941 80.2215 328.556 80.4135C328.076 80.7015 327.885 81.1815 327.885 81.6615C327.885 82.2375 328.076 82.6215 328.46 83.0055C328.844 83.3895 329.324 83.5815 329.9 83.5815C330.092 83.5815 330.188 83.5815 330.38 83.5815V85.9815Z"
    fill="#231F20"/>
</svg>
