<svg width="195" height="29" viewBox="0 0 195 29" fill="none" xmlns="http://www.w3.org/2000/svg">
<path d="M48.1688 7.05171H49.9588C51.3013 7.05171 52.0173 6.78727 52.0173 5.28879C52.0173 3.79031 51.3371 3.63165 49.9588 3.63165H48.1688V7.05171ZM48.1688 11.5824H47.2201V2.96174H50.1199C52.1247 2.96174 53.0376 3.56113 53.0376 5.35931C53.0834 5.63392 53.0733 5.91475 53.0078 6.18545C52.9423 6.45616 52.8228 6.71133 52.6562 6.9361C52.4896 7.16088 52.2793 7.35076 52.0375 7.4947C51.7956 7.63864 51.5272 7.73375 51.2476 7.77451L53.145 11.6353H52.0889L50.1199 7.88028H48.1688V11.5824Z" fill="black"/>
<path d="M54.8992 11.6353V2.97937H60.1797V3.75505H55.83V6.87542H59.589V7.6511H55.83V10.8596H60.1797V11.6353H54.8992Z" fill="black"/>
<path d="M62.9721 7.28089H64.7621C66.1046 7.28089 66.8206 7.01645 66.8206 5.51797C66.8206 4.01949 66.1404 3.75505 64.7621 3.75505H62.9721V7.28089ZM62.9721 11.6353H62.0413V2.96174H64.7979C66.8206 2.96174 67.7156 3.57876 67.7156 5.44746C67.7156 7.31615 66.8206 8.0742 64.7979 8.0742H63.0079L62.9721 11.6353Z" fill="black"/>
<path d="M75.1799 8.62071C75.2517 9.05263 75.2177 9.49519 75.0809 9.9116C74.9441 10.328 74.7083 10.7062 74.3932 11.0148C74.0781 11.3235 73.6927 11.5536 73.2692 11.686C72.8456 11.8184 72.3961 11.8494 71.9579 11.7763C71.5525 11.8259 71.141 11.7831 70.7551 11.6513C70.3691 11.5194 70.0191 11.302 69.732 11.0159C69.4449 10.7297 69.2283 10.3824 69.0991 10.0007C68.9698 9.61905 68.9313 9.21326 68.9865 8.81463V2.96174H69.9173V8.65597C69.9173 10.3131 70.6154 10.983 72.0295 10.983C73.4436 10.983 74.1596 10.3131 74.1596 8.65597V2.96174H75.1799V8.62071Z" fill="black"/>
<path d="M80.3351 7.59822H78.2587V10.8596H80.3351C81.5344 10.8596 82.1251 10.3484 82.1251 9.2201C82.1251 8.09183 81.5344 7.59822 80.3351 7.59822ZM80.2098 3.75505H78.2587V6.84016H80.2098C81.3017 6.84016 81.9998 6.46995 81.9998 5.30642C81.9998 4.1429 81.3554 3.75505 80.2098 3.75505ZM80.1203 11.6353H77.31V2.96174H80.1203C82.1072 2.96174 82.9127 3.73743 82.9127 5.21828C82.9836 5.61577 82.9138 6.02518 82.7151 6.37813C82.5164 6.73107 82.2007 7.00617 81.8208 7.15749C82.2406 7.30415 82.5954 7.59034 82.8241 7.96679C83.0528 8.34325 83.1411 8.78644 83.0738 9.2201C83.0738 10.8596 82.1967 11.5824 80.1203 11.5824" fill="black"/>
<path d="M84.9712 11.6353V2.97937H85.902V10.8596H90.0011V11.6353H84.9712Z" fill="black"/>
<path d="M92.4713 2.96174H91.5405V11.6353H92.4713V2.96174Z" fill="black"/>
<path d="M94.9057 2.97937H95.8365V6.78727H96.6599L99.5239 2.97937H100.598L97.4296 7.15749L100.67 11.6353H99.5418L96.6062 7.58059H95.8365V11.6353H94.9057V2.97937Z" fill="black"/>
<path d="M103.211 8.81463H106.451L104.858 3.8432L103.211 8.81463ZM106.791 9.57268H102.961L102.298 11.6882H101.332L104.214 3.03226H105.467L108.366 11.6353H107.4L106.791 9.57268Z" fill="black"/>
<path d="M114.56 11.7763C113.743 11.7943 112.93 11.6628 112.161 11.3885L112.43 10.5775C113.171 10.8377 113.952 10.9689 114.739 10.9654C116.01 10.9654 116.529 10.6481 116.529 9.41402C116.529 8.17998 116.135 8.03895 114.739 7.6511C113.343 7.26326 112.304 6.62861 112.304 5.16539C112.304 3.70217 113.182 2.82071 115.043 2.82071C115.801 2.82764 116.553 2.96486 117.263 3.22618L117.102 4.00186C116.455 3.76073 115.77 3.63535 115.079 3.63165C113.754 3.63165 113.289 4.05475 113.289 5.09487C113.289 6.13499 113.844 6.45232 114.972 6.85779C117.048 7.47481 117.567 7.9508 117.567 9.41402C117.567 11.1769 116.779 11.8468 114.667 11.8468" fill="black"/>
<path d="M119.268 11.6353V2.97937H120.216V10.8596H124.315V11.6353H119.268Z" fill="black"/>
<path d="M130.67 7.28089C130.67 4.58363 130.097 3.63165 128.271 3.63165C126.445 3.63165 125.873 4.566 125.873 7.28089C125.873 9.99578 126.428 10.9654 128.271 10.9654C130.115 10.9654 130.67 9.96053 130.67 7.28089ZM124.888 7.28089C124.888 3.91372 125.98 2.76782 128.289 2.76782C130.598 2.76782 131.654 3.89609 131.654 7.24563C131.654 10.5952 130.67 11.7763 128.343 11.7763C126.016 11.7763 124.942 10.6833 124.942 7.33378" fill="black"/>
<path d="M132.567 2.97937H133.516L135.879 10.7362H135.932L138.277 2.97937H139.172L136.541 11.6353H135.216L132.567 2.97937Z" fill="black"/>
<path d="M140.515 11.6353V2.97937H145.795V3.75505H141.464V6.87542H145.223V7.6511H141.464V10.8596H145.795V11.6353H140.515Z" fill="black"/>
<path d="M148.57 3.94898H148.516V11.6353H147.675V2.96174H149.035L152.991 10.6481H153.045V2.96174H153.904V11.6353H152.526L148.57 3.94898Z" fill="black"/>
<path d="M157.269 2.96174H156.338V11.6353H157.269V2.96174Z" fill="black"/>
<path d="M160.903 2.96174V10.9478C161.011 11.6256 160.842 12.318 160.433 12.8732C160.023 13.4285 159.407 13.8011 158.719 13.9095L158.469 13.1338C158.95 13.0436 159.376 12.772 159.657 12.3769C159.938 11.9818 160.051 11.4943 159.972 11.0183V2.96174H160.903Z" fill="black"/>
<path d="M163.91 8.81463H167.15L165.557 3.8432L163.91 8.81463ZM167.49 9.57268H163.66L162.997 11.6882H162.031L164.93 3.03226H166.183L169.065 11.6353H168.099L167.49 9.57268Z" fill="black"/>
<path d="M48.9565 17.5058L50.7464 21.4371H50.8001L52.5723 17.5058H54.5591V26.1794H53.0018V19.7624H52.9481L51.4445 23.1295H49.9947L48.4732 19.7624H48.4194V26.1794H46.9159V17.5058H48.9565Z" fill="black"/>
<path d="M58.1033 17.5058H56.4028V26.1794H58.1033V17.5058Z" fill="black"/>
<path d="M61.558 19.6742H61.5043V26.1794H59.9828V17.5058H62.2382L65.2096 24.2049H65.2812V17.5058H66.8027V26.1794H64.5294L61.558 19.6742Z" fill="black"/>
<path d="M70.3827 17.5058H68.6822V26.1794H70.3827V17.5058Z" fill="black"/>
<path d="M74.4102 26.3204C73.5424 26.3324 72.6782 26.2074 71.8505 25.9502L72.1727 24.5046C72.9251 24.7447 73.709 24.8754 74.4997 24.8924C75.3231 24.8924 75.8959 24.6633 75.8959 23.7818C75.8959 22.9003 75.5558 22.8651 74.4102 22.5478C72.7992 22.0894 71.9221 21.5605 71.9221 19.8858C71.9221 18.211 72.9424 17.3648 74.9472 17.3648C75.7448 17.3592 76.5356 17.509 77.2742 17.8055L77.0773 19.1982C76.41 18.9411 75.6996 18.8095 74.983 18.8104C74.2312 18.8104 73.6942 18.9338 73.6942 19.7447C73.6942 20.5557 74.2133 20.7672 75.2515 21.0669C77.0415 21.5958 77.6859 22.0894 77.6859 23.6584C77.6859 25.58 76.7551 26.3204 74.4102 26.3204Z" fill="black"/>
<path d="M82.1609 18.969V26.1794H80.4425V18.969H78.1513V17.5058H84.4521V18.969H82.1609Z" fill="black"/>
<path d="M88.5691 18.9514H87.3519V21.3842H88.5691C89.7505 21.3842 90.0548 21.0669 90.0548 20.1326C90.0548 19.1982 89.6789 18.9514 88.5691 18.9514ZM90.3591 22.4772L92.3102 26.1441H90.3412L88.6407 22.7417H87.3519V26.1441H85.5619V17.5058H88.6049C91.0035 17.5058 91.7195 18.4049 91.7195 20.0797C91.7873 20.5818 91.6856 21.092 91.4301 21.5316C91.1746 21.9712 90.7794 22.3159 90.3054 22.5125" fill="black"/>
<path d="M95.6575 26.3204C94.7835 26.3378 93.9125 26.2127 93.0799 25.9502L93.3842 24.5046C94.1366 24.7447 94.9205 24.8754 95.7112 24.8924C96.5346 24.8924 97.1074 24.6633 97.1074 23.7818C97.1074 22.9003 96.7673 22.8651 95.6217 22.5478C94.0107 22.0894 93.1336 21.5605 93.1336 19.8858C93.1336 18.211 94.1539 17.3648 96.1587 17.3648C96.9563 17.3592 97.7471 17.509 98.4857 17.8055L98.2888 19.1982C97.6215 18.9411 96.9111 18.8095 96.1945 18.8104C95.4427 18.8104 94.9057 18.9338 94.9057 19.7447C94.9057 20.5557 95.4248 20.7672 96.463 21.0669C98.253 21.5958 98.8974 22.0894 98.8974 23.6584C98.8974 25.58 97.9666 26.3204 95.6217 26.3204" fill="black"/>
<path d="M103.408 18.969V26.1794H101.69V18.969H99.3986V17.5058H105.699V18.969H103.408Z" fill="black"/>
<path d="M111.141 26.1794H108.563L106.183 17.5058H107.991L109.852 24.6985H109.924L111.803 17.5058H113.522L111.141 26.1794Z" fill="black"/>
<path d="M119.518 21.8073C119.518 19.4979 119.142 18.828 117.728 18.828C116.314 18.828 115.938 19.4803 115.938 21.8073C115.938 24.1344 116.314 24.8572 117.728 24.8572C119.142 24.8572 119.518 24.1168 119.518 21.8073ZM114.148 21.8073C114.148 18.2815 115.33 17.3119 117.728 17.3119C120.127 17.3119 121.308 18.3168 121.308 21.7721C121.308 25.2274 120.18 26.2675 117.728 26.2675C115.276 26.2675 114.148 25.2803 114.148 21.8073Z" fill="black"/>
<path d="M125.139 26.1794V24.6985L129.077 18.9514H125.318V17.5058H130.992V18.9514L127 24.7338H131.082V26.1794H125.139Z" fill="black"/>
<path d="M134.357 22.918H136.559L135.485 19.0043L134.357 22.918ZM136.953 24.3283H133.963L133.462 26.0912H131.672L134.339 17.4353H136.631L139.316 26.0912H137.526L136.953 24.3283Z" fill="black"/>
<path d="M143.003 17.5058H144.721V21.014H145.205L147.55 17.5058H149.465L146.583 21.631L149.608 26.1794H147.585L145.169 22.3715H144.721V26.1794H143.003V17.5058Z" fill="black"/>
<path d="M156.983 17.5058V23.0766C156.983 25.3684 155.766 26.3204 153.6 26.3204C151.434 26.3204 150.36 25.4389 150.36 23.1295V17.5058H152.15V22.918C152.15 24.4517 152.687 24.8396 153.761 24.8396C154.835 24.8396 155.39 24.4165 155.39 23.0766V17.5058H156.983Z" fill="black"/>
<path d="M158.755 26.1794V17.5058H160.473V24.6985H164.125V26.1794H158.755Z" fill="black"/>
<path d="M167.598 18.969V26.1794H165.897V18.969H163.588V17.5058H169.889V18.969H167.598Z" fill="black"/>
<path d="M177.639 17.5058V23.0766C177.639 25.3684 176.422 26.3204 174.256 26.3204C172.09 26.3204 170.981 25.4389 170.981 23.1295V17.5058H172.771V22.918C172.771 24.4517 173.308 24.8396 174.382 24.8396C175.456 24.8396 176.011 24.4165 176.011 23.0766V17.5058H177.639Z" fill="black"/>
<path d="M182.347 18.9514H181.13V21.3842H182.347C183.529 21.3842 183.833 21.0669 183.833 20.1326C183.833 19.1982 183.439 18.9514 182.347 18.9514ZM184.137 22.4772L186.16 26.1794H184.191L182.401 22.7769H181.094V26.1794H179.304V17.5058H182.347C184.746 17.5058 185.462 18.4049 185.462 20.0797C185.53 20.5818 185.428 21.092 185.172 21.5316C184.917 21.9712 184.522 22.3159 184.048 22.5125" fill="black"/>
<path d="M192.228 21.8073C192.228 19.4979 191.852 18.828 190.438 18.828C189.024 18.828 188.648 19.4803 188.648 21.8073C188.648 24.1344 189.024 24.8572 190.438 24.8572C191.852 24.8572 192.228 24.1168 192.228 21.8073ZM186.858 21.8073C186.858 18.2815 188.039 17.3119 190.438 17.3119C192.837 17.3119 194.018 18.3168 194.018 21.7721C194.018 25.2274 192.89 26.2675 190.438 26.2675C187.986 26.2675 186.858 25.2803 186.858 21.8073Z" fill="black"/>
<path d="M14.1231 2.6973L13.1028 2.5739L13.7293 3.38484L13.067 4.17815L14.1231 4.07238L14.5348 5.00673L14.9465 4.07238L15.931 4.17815L15.3403 3.38484L15.931 2.5739L14.9465 2.6973L14.5348 1.76296L14.1231 2.6973ZM11.3307 6.43469L10.2925 6.32891L10.919 7.05171L10.2567 7.84502L11.3307 7.73925L11.7245 8.81463L12.1362 7.86265L13.1386 7.96843L12.53 7.05171L13.1207 6.2584L12.1183 6.36417L11.7066 5.44746L11.3307 6.43469ZM8.44879 2.6973L7.41059 2.5739L8.03709 3.38484L7.37479 4.17815L8.44879 4.07238L8.94999 5.00673L9.34379 4.07238L10.3462 4.17815L9.66599 3.38484L10.2567 2.5739L9.25429 2.6973L8.94999 1.76296L8.44879 2.6973ZM14.32 21.9836C13.1028 21.9836 13.067 22.6712 11.6529 22.6712C10.2388 22.6712 10.0777 21.9836 8.93209 21.9836C7.78649 21.9836 7.71489 22.6712 6.15759 22.6712C7.64066 24.3927 9.56197 25.6948 11.7245 26.4438C13.8512 25.7195 15.7382 24.4399 17.184 22.7417C15.6804 22.7417 15.6446 22.0541 14.3916 22.0541M17.1124 21.7192C17.4568 21.709 17.7964 21.6373 18.1148 21.5076L18.7055 20.5204C18.2136 20.7755 17.6682 20.9144 17.1124 20.9259C15.7878 20.9259 15.7162 20.2383 14.3916 20.2383C13.067 20.2383 13.0312 20.9259 11.6887 20.9259C10.3462 20.9259 10.3283 20.2383 9.00369 20.2383C7.67909 20.2383 7.55379 20.9259 6.30079 20.9259C5.74821 20.9008 5.20904 20.7499 4.7256 20.4851C4.90205 20.837 5.09929 21.1785 5.31629 21.5076C5.63299 21.6171 5.96525 21.6766 6.30079 21.6839C7.71489 21.6839 7.67909 20.9964 9.00369 20.9964C10.3283 20.9964 10.4357 21.7192 11.6887 21.7192C12.9417 21.7192 13.1386 20.9964 14.3916 20.9964C15.6446 20.9964 15.7878 21.7192 17.1124 21.7192ZM9.32589 14.7909L7.67909 12.6049L3.6874 17.8937C3.71982 18.1948 3.81441 18.4862 3.96537 18.75C4.11632 19.0138 4.32045 19.2444 4.5652 19.4277C4.80996 19.6109 5.09018 19.743 5.38864 19.8157C5.6871 19.8884 5.99751 19.9002 6.30079 19.8505C7.44639 19.8505 7.67909 19.163 9.00369 19.163C10.3283 19.163 10.4715 19.8505 11.7245 19.8505C12.9775 19.8505 13.0312 19.163 14.3916 19.163C15.752 19.163 15.931 19.8505 17.1124 19.8505C17.4187 19.8872 17.7293 19.863 18.026 19.7794C18.3226 19.6959 18.5993 19.5546 18.8396 19.364C19.0798 19.1733 19.2789 18.9372 19.425 18.6695C19.571 18.4018 19.6611 18.1081 19.69 17.8055L15.752 12.6049L14.0873 14.7909L11.7245 10.1016L9.32589 14.7909ZM21.8559 2.97937L21.0504 15.5842C20.8844 18.2238 19.9142 20.7528 18.2665 22.841C16.6188 24.9292 14.3701 26.4797 11.814 27.29C9.23913 26.4952 6.96868 24.9518 5.30102 22.8626C3.63335 20.7733 2.64652 18.2361 2.4702 15.5842L1.6647 2.97937C1.41221 3.07352 1.16695 3.18546 0.930799 3.31433L1.7005 15.6548C1.87032 18.4944 2.92339 21.2137 4.71671 23.4436C6.51004 25.6734 8.95671 27.3056 11.7245 28.1186C14.4824 27.2914 16.9182 25.6548 18.7063 23.4275C20.4944 21.2003 21.5495 18.4885 21.7306 15.6548L22.5003 3.31433C22.2659 3.18214 22.0203 3.07008 21.7664 2.97937M22.6077 15.69C22.4227 18.7472 21.2753 21.6718 19.3248 24.0572C17.3744 26.4425 14.7179 28.1702 11.7245 29C8.7284 28.1694 6.06839 26.4424 4.1123 24.058C2.1562 21.6735 1.00067 18.7494 0.805499 15.69L0 2.80308C3.62222 0.961771 7.63928 0.000976563 11.7155 0.000976562C15.7918 0.000976563 19.8089 0.961771 23.4311 2.80308L22.6077 15.69Z" fill="#67A2BE"/>
</svg>
