<svg width="1155" height="280" viewBox="0 0 1155 280" fill="none" xmlns="http://www.w3.org/2000/svg">
<path d="M1085.18 159.634V135.906H1063.86V113.611H1041.01L1031.56 142.321V159.634V202.318C1031.56 213.463 1033.16 217.605 1036.02 220.472C1039.04 223.495 1043.81 226.047 1054.47 226.047C1063.38 226.047 1072.13 224.929 1077.39 223.656L1085.02 221.906V201.201H1071.5C1067.52 201.201 1065.93 200.885 1065.14 200.088C1064.18 199.13 1063.86 197.541 1063.86 194.037V159.634H1085.18ZM995.338 218.081C993.43 224.132 990.725 225.41 984.679 225.41H963.357C957.311 225.41 954.606 224.132 952.698 218.081L925.645 135.905H959.379L973.855 193.239H975.609L989.929 135.905H1022.39L995.338 218.081ZM884.348 135.905H915.854V226.047C915.854 238.31 913.941 243.087 910.124 246.908C906.783 250.252 901.849 252.638 891.03 252.638C883.712 252.638 878.302 251.685 871.14 250.252V227.476H876.71C880.687 227.476 882.28 227.16 883.076 226.363C884.028 225.41 884.348 223.816 884.348 220.311V135.905ZM868.61 189.574C868.61 206.455 867.653 214.1 862.564 219.354C858.427 223.655 854.129 225.089 844.743 225.089H812.285C802.898 225.089 798.601 223.655 794.463 219.354C788.578 213.303 785.873 204.228 785.873 180.5C785.873 156.771 788.578 147.692 794.463 141.641C798.44 137.339 802.898 135.905 812.285 135.905H844.743C854.129 135.905 858.427 137.339 862.564 141.641C867.498 146.734 868.771 154.064 868.61 170.147H839.333C839.017 163.459 838.857 161.865 838.221 161.068C837.264 159.955 835.992 159.634 832.651 159.634H824.852C821.511 159.634 820.239 159.794 819.287 161.068C818.331 162.186 817.695 164.893 817.695 180.5C817.695 196.107 818.331 198.814 819.287 199.927C820.239 201.2 821.511 201.36 824.852 201.36H832.651C835.992 201.36 837.264 201.04 838.221 199.927C839.017 199.13 839.173 197.22 839.333 189.574H868.61Z" fill="#E03228"/>
<path d="M1154.03 280V52.9321" stroke="#B3B3B3" stroke-width="5.51333" stroke-miterlimit="10"/>
<path d="M717.021 280V52.9321" stroke="#B3B3B3" stroke-width="5.51333" stroke-miterlimit="10"/>
<path d="M0.964111 280V52.9321" stroke="#B3B3B3" stroke-width="5.51333" stroke-miterlimit="10"/>
<path fill-rule="evenodd" clip-rule="evenodd" d="M69.8157 142.206H207.485V280H69.8157V142.206Z" fill="#E03228"/>
<path fill-rule="evenodd" clip-rule="evenodd" d="M115.489 137.74L69.8124 137.737V111.211H70.6652V136.468H115.489V137.74ZM125.43 137.74L118.437 137.74V136.468H125.43V137.74ZM140.66 137.741L128.378 137.741V136.468H140.66V137.741ZM152.363 137.742L143.608 137.742V136.468H152.363V137.742ZM157.212 137.743H155.311V136.469H157.212V137.743ZM207.52 137.745L160.16 137.743V136.468H205.955L205.955 112.602H207.52V137.745ZM205.955 109.804L205.954 79.5205H207.52V109.804H205.955ZM164.61 76.9025H205.352V78.1172L164.61 76.9025ZM135.494 80.8692C135.941 80.2704 137.195 79.3987 138.676 79.3987C140.53 79.3987 142.034 80.7665 142.034 81.2504L142.043 89.8712H140.48L140.472 81.7605C140.472 81.3307 139.379 80.1164 137.732 80.1164C136.84 80.1164 136.039 80.4734 135.494 80.8692ZM134.427 62.804L138.601 59.7324L141.597 61.7447C142.461 62.4242 143.063 63.3687 143.063 64.5512V69.231H141.78V64.5368C141.78 63.525 141.264 62.7163 140.525 62.1349L137.962 60.4133L134.427 62.804ZM141.35 36.7136L141.354 31.5467L134.554 30.3063H142.633L142.635 36.7136H141.35ZM138.185 4.14795e-05H139.038V24.5332H138.185V4.14795e-05ZM133.957 38.1911H142.895L149.655 43.6296H147.868L141.976 38.8197L133.957 38.1911ZM125.854 45.1239H149.946L154.584 63.9493L153.303 63.9324L148.77 45.9476L125.854 45.1239ZM69.7429 78.8765H70.5962V106.15H69.7429V78.8765ZM159.46 134.938H157.919V112.602H159.46V134.938ZM119.439 109.897H157.224V111.175L119.439 109.897ZM200.132 65.5378L195.985 53.8011L156.422 52.8281H196.977L201.567 65.535L200.132 65.5378ZM129.947 61.6756L138.612 56.0883L147.551 61.6756V70.623H145.987V61.9804L138.612 56.6468L129.947 61.6756ZM137.965 48.5675C137.965 48.2123 138.253 47.9239 138.608 47.9239C138.962 47.9239 139.25 48.2123 139.25 48.5675C139.25 48.9226 138.962 49.2101 138.608 49.2101C138.253 49.2101 137.965 48.9226 137.965 48.5675ZM136.94 54.4419L137.147 53.425L139.314 53.4306L138.606 50.4061L140.326 54.4419H136.94ZM129.397 53.4926C129.397 53.1823 129.648 52.9308 129.958 52.9308C130.268 52.9308 130.519 53.1823 130.519 53.4926C130.519 53.8025 130.268 54.054 129.958 54.054C129.648 54.054 129.397 53.8025 129.397 53.4926ZM128.826 58.1103L128.896 57.2764L130.599 57.2811L130.136 54.9379L131.488 58.1103H128.826ZM80.3953 89.908L79.1094 89.9099L79.1098 83.1311L76.815 82.6906H80.3953V89.908ZM116.17 106.153L116.17 79.5205H117.694V106.149L116.17 106.153ZM74.7835 76.9025H115.472V77.9408L74.7835 76.9025ZM116.189 134.938L116.188 112.602H117.694V134.938H116.189ZM74.7835 109.883H115.472V110.913L74.7835 109.883ZM76.2387 66.2667L80.296 52.9308H121.556V53.8926H80.9203L76.2387 66.2667ZM203.638 111.386L160.695 109.883H203.604L203.638 111.386ZM91.0933 89.908L89.8069 89.9099L89.8079 83.1311L87.513 82.6906H91.0933V89.908ZM101.506 89.908L100.22 89.9099L100.221 83.1311L97.9252 82.6906H101.506V89.908ZM111.969 89.908L110.682 89.9099L110.683 83.1311L108.388 82.6906H111.969V89.908ZM126.991 89.908L125.704 89.9099L125.705 83.1311L123.41 82.6906H126.991V89.908ZM153.744 89.908L152.458 89.9099L152.459 83.1311L150.164 82.6906H153.744V89.908ZM167.511 89.908L166.225 89.9099L166.226 83.1311L163.93 82.6906H167.511V89.908ZM178.209 89.908L176.923 89.9099L176.923 83.1311L174.628 82.6906H178.209V89.908ZM188.621 89.908L187.335 89.9099L187.336 83.1311L185.041 82.6906H188.621V89.908ZM199.084 89.908L197.798 89.9099L197.798 83.1311L195.504 82.6906H199.084V89.908ZM80.3953 122.209L79.1094 122.211L79.1098 115.432L76.815 114.992H80.3953V122.209ZM91.0933 122.209L89.8069 122.211L89.8079 115.432L87.513 114.992H91.0933V122.209ZM101.506 122.209L100.22 122.211L100.221 115.432L97.9252 114.992H101.506V122.209ZM111.969 122.209L110.682 122.211L110.683 115.432L108.388 114.992H111.969V122.209ZM167.511 122.209L166.225 122.211L166.226 115.432L163.93 114.992H167.511V122.209ZM178.209 122.209L176.923 122.211L176.923 115.432L174.628 114.992H178.209V122.209ZM188.621 122.209L187.335 122.211L187.336 115.432L185.041 114.992H188.621V122.209ZM199.084 122.209L197.798 122.211L197.798 115.432L195.504 114.992H199.084V122.209ZM80.3953 133.959L79.1094 133.961L79.1098 129.007L76.815 128.566H80.3953V133.959ZM91.0933 133.959L89.8069 133.961L89.8079 129.007L87.513 128.566H91.0933V133.959ZM101.506 133.959L100.22 133.961L100.221 129.007L97.9252 128.566H101.506V133.959ZM111.969 133.959L110.682 133.961L110.683 129.007L108.388 128.566H111.969V133.959ZM167.511 133.959L166.225 133.961L166.226 129.007L163.93 128.566H167.511V133.959ZM178.209 133.959L176.923 133.961L176.923 129.007L174.628 128.566H178.209V133.959ZM188.621 133.959L187.335 133.961L187.336 129.007L185.041 128.566H188.621V133.959ZM199.084 133.959L197.798 133.961L197.798 129.007L195.504 128.566H199.084V133.959ZM121.228 73.746L119.961 73.7679V66.7698L117.806 66.1323H121.228V73.746ZM121.228 63.9147H118.079V62.6743H119.847L118.973 57.5671L121.228 63.9147ZM159.38 73.746L158.113 73.7679V66.7698L155.958 66.1323H159.38V73.746ZM159.38 63.9147H156.231V62.6743H157.999L157.125 57.5671L159.38 63.9147ZM207.519 74.88H206.266L206.266 66.6466L203.044 65.387H207.519V74.88ZM207.519 63.854H203.281V62.6529H206.051L204.932 54.873L207.519 63.854ZM73.7377 74.88H72.4849L72.4845 66.6466L69.2627 65.387H73.7377V74.88ZM73.7377 63.854H69.4996V62.6529H72.2691L71.1501 54.873L73.7377 63.854ZM146.392 53.4926C146.392 53.1823 146.643 52.9308 146.953 52.9308C147.262 52.9308 147.514 53.1823 147.514 53.4926C147.514 53.8025 147.262 54.054 146.953 54.054C146.643 54.054 146.392 53.8025 146.392 53.4926ZM145.77 58.1103L145.839 57.2764L147.542 57.2811L147.08 54.9379L148.432 58.1103H145.77ZM142.947 134.938H141.274L141.265 118.76C141.281 116.383 139.635 114.737 137.605 114.737C136.687 114.737 135.849 115.072 135.205 115.628C135.993 114.591 137.239 113.92 138.641 113.92C141.023 113.92 142.954 115.853 142.954 118.238L142.947 134.938ZM154.462 134.938H153.129L153.122 119.61C153.133 117.773 151.988 116.499 150.576 116.499C149.858 116.499 149.209 116.828 148.744 117.358C149.315 116.462 150.254 115.878 151.317 115.878C153.057 115.878 154.467 117.447 154.467 119.382L154.462 134.938ZM127.618 134.938H126.285L126.278 119.61C126.289 117.773 125.144 116.499 123.731 116.499C123.013 116.499 122.364 116.828 121.9 117.358C122.47 116.462 123.409 115.878 124.471 115.878C126.211 115.878 127.622 117.447 127.622 119.382L127.618 134.938ZM153.776 106.149H152.546L152.543 98.3048C152.548 97.5147 152 96.9664 151.325 96.9664C150.973 96.9664 150.655 97.1152 150.432 97.3537C150.74 96.81 151.322 96.4428 151.991 96.4428C152.979 96.4428 153.779 97.245 153.779 98.2334L153.776 106.149ZM140.735 106.149L140.727 98.3939C140.739 96.5627 139.471 95.2934 137.906 95.2934C136.829 95.2934 135.893 95.8949 135.414 96.7802C135.916 95.4576 137.194 94.5164 138.692 94.5164C140.629 94.5164 142.199 96.0876 142.199 98.0262L142.193 106.149H140.735ZM127.11 106.149H125.88L125.877 98.3048C125.882 97.5147 125.334 96.9664 124.659 96.9664C124.307 96.9664 123.989 97.1152 123.766 97.3537C124.073 96.81 124.657 96.4428 125.325 96.4428C126.312 96.4428 127.113 97.245 127.113 98.2334L127.11 106.149ZM167.553 106.149H166.322L166.319 98.3048C166.324 97.5147 165.777 96.9664 165.101 96.9664C164.749 96.9664 164.432 97.1152 164.208 97.3537C164.515 96.81 165.098 96.4428 165.766 96.4428C166.754 96.4428 167.555 97.245 167.555 98.2334L167.553 106.149ZM178.12 106.149H176.89L176.887 98.3048C176.892 97.5147 176.344 96.9664 175.669 96.9664C175.317 96.9664 174.999 97.1152 174.776 97.3537C175.083 96.81 175.666 96.4428 176.334 96.4428C177.322 96.4428 178.123 97.245 178.123 98.2334L178.12 106.149ZM188.593 106.149H187.363L187.36 98.3048C187.366 97.5147 186.817 96.9664 186.142 96.9664C185.79 96.9664 185.472 97.1152 185.249 97.3537C185.556 96.81 186.139 96.4428 186.808 96.4428C187.796 96.4428 188.596 97.245 188.596 98.2334L188.593 106.149ZM198.972 106.149H197.742L197.739 98.3048C197.744 97.5147 197.197 96.9664 196.521 96.9664C196.169 96.9664 195.851 97.1152 195.629 97.3537C195.935 96.81 196.518 96.4428 197.186 96.4428C198.174 96.4428 198.975 97.245 198.975 98.2334L198.972 106.149ZM111.883 106.149H110.652L110.65 98.3048C110.655 97.5147 110.107 96.9664 109.431 96.9664C109.08 96.9664 108.762 97.1152 108.538 97.3537C108.846 96.81 109.428 96.4428 110.097 96.4428C111.085 96.4428 111.886 97.245 111.886 98.2334L111.883 106.149ZM101.504 106.149H100.274L100.27 98.3048C100.276 97.5147 99.7277 96.9664 99.0526 96.9664C98.7001 96.9664 98.3826 97.1152 98.1597 97.3537C98.467 96.81 99.0493 96.4428 99.7179 96.4428C100.706 96.4428 101.506 97.245 101.506 98.2334L101.504 106.149ZM91.0304 106.149H89.7999L89.7971 98.3048C89.8023 97.5147 89.2544 96.9664 88.5788 96.9664C88.2268 96.9664 87.9093 97.1152 87.6864 97.3537C87.9932 96.81 88.5765 96.4428 89.2446 96.4428C90.2321 96.4428 91.0331 97.245 91.0331 98.2334L91.0304 106.149ZM80.4629 106.149H79.2324L79.2292 98.3048C79.2348 97.5147 78.6869 96.9664 78.0113 96.9664C77.6593 96.9664 77.3418 97.1152 77.1185 97.3537C77.4253 96.81 78.0085 96.4428 78.6767 96.4428C79.6647 96.4428 80.4657 97.245 80.4657 98.2334L80.4629 106.149ZM109.354 62.377C109.354 62.0742 109.6 61.8287 109.902 61.8287C110.205 61.8287 110.45 62.0742 110.45 62.377C110.45 62.6804 110.205 62.9258 109.902 62.9258C109.6 62.9258 109.354 62.6804 109.354 62.377ZM111.454 70.7518H110.319V65.4328C110.319 64.5998 109.745 64.022 109.033 64.022C108.806 64.022 108.593 64.0809 108.408 64.1835C108.732 63.8625 109.177 63.6641 109.669 63.6641C110.657 63.6641 111.454 64.4654 111.454 65.4542V70.7518ZM100.357 62.377C100.357 62.0742 100.602 61.8287 100.905 61.8287C101.208 61.8287 101.453 62.0742 101.453 62.377C101.453 62.6804 101.208 62.9258 100.905 62.9258C100.602 62.9258 100.357 62.6804 100.357 62.377ZM102.456 70.7518H101.322V65.4328C101.322 64.5998 100.748 64.022 100.036 64.022C99.8093 64.022 99.5962 64.0809 99.4111 64.1835C99.7342 63.8625 100.18 63.6641 100.671 63.6641C101.659 63.6641 102.456 64.4654 102.456 65.4542V70.7518ZM90.5897 62.377C90.5897 62.0742 90.835 61.8287 91.1376 61.8287C91.4406 61.8287 91.6859 62.0742 91.6859 62.377C91.6859 62.6804 91.4406 62.9258 91.1376 62.9258C90.835 62.9258 90.5897 62.6804 90.5897 62.377ZM92.6888 70.7518H91.5553V65.4328C91.5553 64.5998 90.9805 64.022 90.2685 64.022C90.0419 64.022 89.8288 64.0809 89.6437 64.1835C89.9668 63.8625 90.4121 63.6641 90.904 63.6641C91.8915 63.6641 92.6888 64.4654 92.6888 65.4542V70.7518ZM96.782 59.4618H95.7912V56.9469C95.7912 56.2184 95.2886 55.713 94.6661 55.713C94.468 55.713 94.2815 55.7644 94.1192 55.8544C94.4022 55.5735 94.7916 55.3995 95.2214 55.3995C96.0849 55.3995 96.782 56.1004 96.782 56.9651V59.4618ZM107.198 59.4618H106.206V56.9469C106.206 56.2184 105.705 55.713 105.082 55.713C104.883 55.713 104.697 55.7644 104.536 55.8544C104.818 55.5735 105.208 55.3995 105.637 55.3995C106.501 55.3995 107.198 56.1004 107.198 56.9651V59.4618ZM171.595 59.4618H170.604V56.9469C170.604 56.2184 170.102 55.713 169.479 55.713C169.281 55.713 169.095 55.7644 168.933 55.8544C169.216 55.5735 169.605 55.3995 170.035 55.3995C170.899 55.3995 171.595 56.1004 171.595 56.9651V59.4618ZM166.282 62.377C166.282 62.0742 166.526 61.8287 166.829 61.8287C167.132 61.8287 167.378 62.0742 167.378 62.377C167.378 62.6804 167.132 62.9258 166.829 62.9258C166.526 62.9258 166.282 62.6804 166.282 62.377ZM168.38 70.7518H167.247V65.4328C167.247 64.5998 166.672 64.022 165.96 64.022C165.733 64.022 165.521 64.0809 165.336 64.1835C165.659 63.8625 166.104 63.6641 166.596 63.6641C167.584 63.6641 168.38 64.4654 168.38 65.4542V70.7518ZM182.187 59.4618H181.196V56.9469C181.196 56.2184 180.693 55.713 180.071 55.713C179.873 55.713 179.687 55.7644 179.524 55.8544C179.807 55.5735 180.197 55.3995 180.627 55.3995C181.49 55.3995 182.187 56.1004 182.187 56.9651V59.4618ZM176.163 62.377C176.163 62.0742 176.408 61.8287 176.711 61.8287C177.014 61.8287 177.259 62.0742 177.259 62.377C177.259 62.6804 177.014 62.9258 176.711 62.9258C176.408 62.9258 176.163 62.6804 176.163 62.377ZM178.262 70.7518H177.128V65.4328C177.128 64.5998 176.553 64.022 175.842 64.022C175.615 64.022 175.402 64.0809 175.217 64.1835C175.54 63.8625 175.985 63.6641 176.477 63.6641C177.465 63.6641 178.262 64.4654 178.262 65.4542V70.7518ZM185.166 62.377C185.166 62.0742 185.411 61.8287 185.714 61.8287C186.017 61.8287 186.262 62.0742 186.262 62.377C186.262 62.6804 186.017 62.9258 185.714 62.9258C185.411 62.9258 185.166 62.6804 185.166 62.377ZM187.265 70.7518H186.131V65.4328C186.131 64.5998 185.557 64.022 184.845 64.022C184.618 64.022 184.405 64.0809 184.22 64.1835C184.544 63.8625 184.989 63.6641 185.48 63.6641C186.468 63.6641 187.265 64.4654 187.265 65.4542V70.7518ZM78.4552 31.5677C78.4552 31.2382 78.7224 30.9708 79.052 30.9708C79.3812 30.9708 79.6488 31.2382 79.6488 31.5677C79.6488 31.8976 79.3812 32.165 79.052 32.165C78.7224 32.165 78.4552 31.8976 78.4552 31.5677ZM82.0145 51.0482H80.7403L80.7333 44.3614C80.745 42.6016 79.5266 41.3822 78.0235 41.3822C77.5428 41.3822 77.0914 41.5068 76.6993 41.7256C77.2602 41.272 77.9745 41 78.7522 41C80.5575 41 82.0145 42.4653 82.0145 44.2722V51.0482ZM81.4103 39.5038H77.4397L77.4491 38.2084L79.9477 38.2317L79.1541 33.1562L81.4103 39.5038ZM195.986 31.5677C195.986 31.2382 196.253 30.9708 196.583 30.9708C196.912 30.9708 197.179 31.2382 197.179 31.5677C197.179 31.8976 196.912 32.165 196.583 32.165C196.253 32.165 195.986 31.8976 195.986 31.5677ZM199.547 51.0482H198.273L198.266 44.3614C198.277 42.6016 197.059 41.3822 195.556 41.3822C195.076 41.3822 194.624 41.5068 194.232 41.7256C194.793 41.272 195.507 41 196.285 41C198.09 41 199.547 42.4653 199.547 44.2722V51.0482ZM198.943 39.5038H194.972L194.982 38.2084L197.48 38.2317L196.687 33.1562L198.943 39.5038ZM138.612 26.0069C140.259 26.0069 141.604 27.3028 141.685 28.9315H140.629C140.405 27.7224 139.346 26.8068 138.073 26.8068C136.854 26.8068 135.832 27.6449 135.55 28.777C135.705 27.2212 137.017 26.0069 138.612 26.0069ZM148.03 75.9836H157.224V77.2296L147.477 76.9753C146.443 74.3746 142.599 72.4599 138.049 72.4599C133.787 72.4599 130.168 74.1539 128.877 76.5068C130.106 73.9252 133.987 72.0394 138.584 72.0394C142.864 72.0394 146.523 73.6741 148.03 75.9836ZM159.46 78.3608V106.231H157.973L157.927 78.3608H159.46Z" fill="#231F20"/>
<path d="M258.742 164.145C258.742 165.024 258.704 165.793 258.631 166.453C258.555 167.118 258.427 167.721 258.247 168.261C258.066 168.803 257.824 169.296 257.523 169.733C257.222 170.17 256.845 170.612 256.394 171.063C254.376 173.023 251.274 174.001 247.088 174.001C244.861 174.001 242.887 173.745 241.17 173.237C239.454 172.724 238.13 171.998 237.196 171.063C236.774 170.673 236.434 170.265 236.181 169.842C235.925 169.42 235.713 168.95 235.547 168.418C235.381 167.891 235.268 167.288 235.208 166.609C235.149 165.935 235.118 165.114 235.118 164.145V147.51C235.118 146.755 235.087 146.152 235.028 145.701C234.966 145.25 234.824 144.908 234.599 144.685C234.373 144.457 234.048 144.305 233.629 144.229C233.206 144.158 232.649 144.12 231.957 144.12C231.504 144.12 231.188 144.073 231.008 143.982C230.828 143.892 230.738 143.726 230.738 143.484C230.738 143.033 231.008 142.805 231.549 142.805C232.092 142.838 232.542 142.867 232.905 142.9C233.266 142.928 233.65 142.952 234.055 142.966C234.463 142.981 234.817 143.004 235.118 143.033C235.478 143.061 235.818 143.08 236.135 143.08H237.016C237.196 143.08 237.663 143.057 238.415 143.009C239.169 142.966 240.222 142.914 241.578 142.852C241.787 142.824 241.977 142.805 242.143 142.805H242.527C243.068 142.805 243.338 143.033 243.338 143.484C243.338 143.726 243.248 143.892 243.068 143.982C242.887 144.073 242.555 144.12 242.074 144.12C241.381 144.12 240.824 144.158 240.402 144.229C239.98 144.305 239.657 144.457 239.432 144.685C239.207 144.908 239.062 145.25 239.003 145.701C238.941 146.152 238.913 146.755 238.913 147.51V162.612C238.913 164.601 238.986 166.12 239.138 167.175C239.29 168.233 239.574 169.059 239.997 169.662C240.63 170.659 241.63 171.428 243.001 171.97C244.37 172.511 245.973 172.781 247.811 172.781C249.709 172.781 251.388 172.487 252.848 171.903C254.307 171.314 255.415 170.479 256.169 169.392C256.619 168.76 256.935 168.057 257.118 167.288C257.298 166.519 257.388 165.475 257.388 164.145V149.542C257.388 148.341 257.35 147.372 257.274 146.651C257.198 145.929 257.027 145.378 256.755 144.999C256.484 144.623 256.079 144.376 255.536 144.253C254.993 144.134 254.271 144.058 253.368 144.03C252.887 143.997 252.645 143.802 252.645 143.441C252.645 143.047 252.946 142.852 253.548 142.852L258.111 143.033H258.877C259.15 143.033 259.449 143.018 259.781 142.99C260.564 142.928 261.069 142.9 261.294 142.9H261.861C262.461 142.9 262.762 143.061 262.762 143.394C262.762 143.636 262.665 143.802 262.47 143.892C262.274 143.982 261.844 144.058 261.183 144.12C260.58 144.21 260.113 144.315 259.781 144.433C259.449 144.557 259.209 144.789 259.06 145.136C258.908 145.482 258.818 146 258.787 146.693C258.759 147.391 258.742 148.341 258.742 149.542V164.145Z" fill="#231F20"/>
<path d="M286.612 168.622C286.612 169.349 286.635 169.928 286.681 170.365C286.725 170.802 286.83 171.139 286.996 171.381C287.162 171.623 287.387 171.789 287.674 171.879C287.959 171.969 288.329 172.031 288.782 172.06C289.353 172.121 289.721 172.188 289.887 172.264C290.053 172.34 290.136 172.497 290.136 172.738C290.136 173.1 289.911 173.28 289.458 173.28H289.301C289.225 173.28 289.142 173.266 289.052 173.237C288.087 173.175 287.243 173.123 286.514 173.076C285.786 173.033 285.253 173.009 284.918 173.009C284.582 173.009 284.036 173.033 283.277 173.076C282.52 173.123 281.705 173.175 280.83 173.237C280.739 173.266 280.656 173.28 280.583 173.28H280.379C279.957 173.28 279.746 173.1 279.746 172.738C279.746 172.497 279.829 172.335 279.995 172.259C280.161 172.183 280.529 172.117 281.103 172.055C281.553 172.026 281.923 171.965 282.208 171.875C282.494 171.784 282.72 171.618 282.886 171.376C283.052 171.134 283.156 170.797 283.201 170.36C283.246 169.918 283.27 169.339 283.27 168.613V159.369C283.27 158.13 283.142 157.105 282.888 156.288C282.632 155.472 282.219 154.793 281.65 154.251C281.199 153.795 280.638 153.439 279.962 153.183C279.288 152.927 278.591 152.799 277.87 152.799C277.059 152.799 276.243 152.965 275.418 153.297C274.592 153.629 273.836 154.099 273.146 154.702C272.816 154.973 272.545 155.239 272.334 155.495C272.125 155.752 271.959 156.032 271.841 156.335C271.72 156.635 271.637 156.977 271.592 157.351C271.547 157.731 271.525 158.192 271.525 158.733V168.613C271.525 169.339 271.547 169.918 271.592 170.36C271.637 170.797 271.744 171.134 271.91 171.376C272.073 171.618 272.301 171.784 272.586 171.875C272.873 171.965 273.243 172.026 273.693 172.055C274.265 172.117 274.635 172.183 274.801 172.259C274.964 172.335 275.047 172.497 275.047 172.738C275.047 173.1 274.822 173.28 274.371 173.28H274.213C274.137 173.28 274.054 173.266 273.963 173.237C273.001 173.175 272.164 173.123 271.45 173.076C270.736 173.033 270.211 173.009 269.877 173.009C269.541 173.009 268.985 173.033 268.212 173.076C267.439 173.123 266.616 173.175 265.743 173.237C265.653 173.266 265.57 173.28 265.494 173.28H265.29C264.868 173.28 264.659 173.1 264.659 172.738C264.659 172.497 264.742 172.34 264.908 172.264C265.072 172.188 265.442 172.121 266.014 172.06C266.467 172.031 266.834 171.969 267.121 171.879C267.406 171.789 267.634 171.623 267.8 171.381C267.963 171.139 268.07 170.802 268.115 170.365C268.16 169.928 268.181 169.349 268.181 168.622V157.817C268.181 157.124 268.167 156.592 268.136 156.212C268.108 155.837 268.025 155.557 267.89 155.376C267.752 155.196 267.527 155.082 267.212 155.035C266.896 154.992 266.45 154.94 265.879 154.878C265.547 154.878 265.383 154.745 265.383 154.47C265.383 154.323 265.442 154.218 265.563 154.157C265.682 154.095 265.938 153.99 266.331 153.838C267.143 153.568 267.93 153.192 268.691 152.709C269.453 152.229 270.017 151.744 270.385 151.26C270.629 150.933 270.795 150.719 270.888 150.629C270.98 150.539 271.087 150.491 271.21 150.491C271.39 150.491 271.481 150.615 271.481 150.857V154.066C271.481 154.365 271.495 154.555 271.525 154.631C271.554 154.707 271.644 154.745 271.796 154.745C271.917 154.745 272.083 154.636 272.294 154.427C273.587 153.159 274.791 152.243 275.906 151.669C277.021 151.094 278.15 150.809 279.295 150.809C280.289 150.809 281.259 150.999 282.208 151.374C283.156 151.754 283.977 152.272 284.669 152.936C285.032 153.297 285.34 153.682 285.597 154.085C285.853 154.494 286.055 154.944 286.206 155.443C286.356 155.942 286.462 156.516 286.522 157.161C286.583 157.812 286.612 158.586 286.612 159.492V168.622Z" fill="#231F20"/>
<path d="M298.131 142.221C298.733 142.221 299.222 142.444 299.599 142.89C299.976 143.341 300.163 143.907 300.163 144.595C300.163 145.279 299.969 145.839 299.578 146.271C299.186 146.708 298.688 146.921 298.086 146.921C297.455 146.921 296.94 146.712 296.551 146.295C296.158 145.877 295.963 145.326 295.963 144.637C295.963 143.949 296.174 143.375 296.596 142.914C297.016 142.449 297.528 142.221 298.131 142.221ZM299.713 168.623C299.713 169.349 299.734 169.928 299.779 170.365C299.824 170.802 299.931 171.138 300.097 171.381C300.261 171.623 300.488 171.789 300.773 171.879C301.06 171.97 301.43 172.031 301.88 172.06C302.452 172.121 302.822 172.188 302.988 172.264C303.152 172.34 303.235 172.496 303.235 172.739C303.235 173.099 303.009 173.28 302.559 173.28H302.4C302.324 173.28 302.241 173.266 302.151 173.237C301.188 173.175 300.341 173.123 299.613 173.076C298.885 173.033 298.354 173.009 298.019 173.009C297.683 173.009 297.135 173.033 296.378 173.076C295.619 173.123 294.803 173.175 293.93 173.237C293.84 173.266 293.757 173.28 293.681 173.28H293.478C293.055 173.28 292.847 173.099 292.847 172.739C292.847 172.496 292.93 172.34 293.096 172.264C293.259 172.188 293.629 172.121 294.201 172.06C294.654 172.031 295.021 171.97 295.309 171.879C295.593 171.789 295.821 171.623 295.987 171.381C296.151 171.138 296.257 170.802 296.302 170.365C296.347 169.928 296.369 169.349 296.369 168.623V157.997C296.369 156.763 296.25 155.956 296.008 155.581C295.766 155.201 295.256 155.016 294.471 155.016H293.886C293.463 155.016 293.252 154.849 293.252 154.517C293.252 154.337 293.328 154.199 293.478 154.109C293.629 154.019 293.93 153.9 294.381 153.748C294.682 153.658 295.038 153.506 295.444 153.297C295.849 153.084 296.25 152.851 296.646 152.595C297.042 152.338 297.408 152.082 297.742 151.825C298.079 151.569 298.323 151.336 298.475 151.127C298.688 150.886 298.849 150.719 298.956 150.629C299.063 150.539 299.193 150.491 299.345 150.491C299.62 150.491 299.758 150.657 299.758 150.99L299.713 151.716V168.623Z" fill="#231F20"/>
<path d="M322.433 156.644C322.523 156.459 322.606 156.241 322.682 155.984C322.756 155.733 322.832 155.476 322.907 155.22C322.981 154.964 323.043 154.722 323.088 154.493C323.133 154.27 323.154 154.109 323.154 154.019C323.154 153.207 322.538 152.77 321.304 152.708C320.731 152.708 320.37 152.68 320.218 152.618C320.069 152.557 319.993 152.409 319.993 152.167C319.993 151.806 320.218 151.621 320.671 151.621H320.896C321.017 151.621 321.183 151.64 321.394 151.669C321.905 151.73 322.372 151.768 322.794 151.782C323.216 151.797 323.666 151.806 324.15 151.806C324.66 151.806 325.12 151.788 325.526 151.759C325.934 151.73 326.453 151.683 327.086 151.621C327.236 151.593 327.371 151.579 327.492 151.579H327.852C328.244 151.579 328.441 151.745 328.441 152.077C328.441 152.286 328.365 152.428 328.215 152.504C328.064 152.58 327.732 152.647 327.222 152.708C326.828 152.798 326.482 152.913 326.183 153.046C325.882 153.183 325.595 153.411 325.324 153.724C325.052 154.043 324.781 154.465 324.511 154.992C324.24 155.519 323.922 156.188 323.562 157.005L316.153 173.37C315.973 173.792 315.776 174.001 315.567 174.001C315.356 174.001 315.176 173.792 315.024 173.37L307.57 155.016C307.209 154.08 306.856 153.477 306.51 153.207C306.164 152.937 305.599 152.77 304.817 152.708C304.454 152.708 304.207 152.666 304.07 152.571C303.934 152.481 303.868 152.334 303.868 152.12C303.868 151.788 304.124 151.621 304.634 151.621H304.861C304.98 151.621 305.101 151.64 305.222 151.669C305.794 151.73 306.344 151.768 306.87 151.782C307.397 151.797 307.978 151.806 308.611 151.806C309.301 151.806 309.942 151.797 310.53 151.782C311.118 151.768 311.832 151.745 312.676 151.716C312.826 151.683 312.97 151.669 313.106 151.669H313.444C313.985 151.669 314.256 151.849 314.256 152.21C314.256 152.452 314.182 152.594 314.031 152.642C313.879 152.685 313.504 152.723 312.901 152.756C311.697 152.846 311.094 153.297 311.094 154.109C311.094 154.289 311.132 154.508 311.208 154.764C311.282 155.021 311.441 155.438 311.683 156.008L316.831 168.983L322.433 156.644Z" fill="#231F20"/>
<path d="M338.693 158.766C339.147 158.766 339.642 158.752 340.185 158.723C340.728 158.695 341.247 158.657 341.744 158.61C342.242 158.567 342.692 158.52 343.1 158.477C343.506 158.429 343.8 158.377 343.98 158.32C344.974 158.021 345.469 157.39 345.469 156.431C345.469 155.832 345.327 155.263 345.042 154.726C344.756 154.185 344.371 153.725 343.89 153.335C343.408 152.946 342.842 152.637 342.196 152.414C341.546 152.186 340.863 152.077 340.14 152.077C338.814 152.077 337.572 152.381 336.414 152.998C335.254 153.611 334.327 154.441 333.635 155.49C333.333 155.909 333.077 156.388 332.866 156.924C332.657 157.465 332.551 157.869 332.551 158.14C332.551 158.557 332.897 158.766 333.589 158.766H338.693ZM333.499 159.944C332.928 159.944 332.558 160.039 332.394 160.238C332.228 160.433 332.145 160.879 332.145 161.572C332.145 163.049 332.378 164.411 332.845 165.66C333.312 166.913 333.967 167.991 334.809 168.893C335.653 169.8 336.647 170.507 337.792 171.02C338.935 171.533 340.185 171.789 341.539 171.789C342.834 171.789 343.994 171.561 345.018 171.11C346.041 170.659 347.111 169.904 348.225 168.85C348.436 168.67 348.602 168.58 348.723 168.58C348.963 168.58 349.084 168.698 349.084 168.941C349.084 169.33 348.498 170.07 347.321 171.158C345.154 173.052 342.626 174.002 339.735 174.002C338.136 174.002 336.654 173.712 335.283 173.123C333.914 172.534 332.731 171.727 331.737 170.702C330.743 169.681 329.961 168.466 329.389 167.065C328.818 165.66 328.531 164.131 328.531 162.474C328.531 160.457 328.922 158.7 329.705 157.209C330.487 155.713 331.737 154.413 333.454 153.297C335.563 151.849 337.942 151.128 340.591 151.128C342.519 151.128 344.167 151.527 345.538 152.324C346.909 153.122 347.924 154.275 348.588 155.785C348.828 156.326 349.017 156.891 349.152 157.48C349.287 158.069 349.354 158.6 349.354 159.085C349.354 159.474 349.295 159.716 349.174 159.806C349.053 159.896 348.752 159.944 348.27 159.944H333.499Z" fill="#231F20"/>
<path d="M359.654 154.337C359.654 154.669 359.744 154.835 359.925 154.835C360.015 154.835 360.098 154.797 360.174 154.721C360.247 154.645 360.423 154.398 360.693 153.976C360.933 153.615 361.281 153.212 361.732 152.775C362.182 152.338 362.65 151.954 363.131 151.621C363.553 151.322 363.952 151.113 364.329 150.99C364.706 150.871 365.135 150.809 365.617 150.809C366.399 150.809 367.054 151.042 367.583 151.512C368.109 151.977 368.372 152.557 368.372 153.25C368.372 153.824 368.183 154.289 367.808 154.655C367.431 155.016 366.957 155.196 366.385 155.196C366.022 155.196 365.707 155.111 365.436 154.944C365.166 154.783 364.848 154.489 364.488 154.066C364.246 153.796 364.035 153.606 363.855 153.501C363.674 153.397 363.463 153.34 363.224 153.34C362.349 153.34 361.49 154.019 360.648 155.377C360.257 155.98 359.993 156.568 359.858 157.138C359.72 157.712 359.654 158.51 359.654 159.536V168.622C359.654 169.349 359.676 169.928 359.72 170.365C359.766 170.801 359.872 171.139 360.038 171.381C360.202 171.623 360.43 171.789 360.714 171.879C361.001 171.969 361.371 172.031 361.822 172.059C362.393 172.122 362.764 172.188 362.93 172.264C363.093 172.34 363.176 172.496 363.176 172.738C363.176 173.099 362.951 173.28 362.5 173.28H362.341C362.266 173.28 362.182 173.266 362.092 173.237C361.129 173.175 360.283 173.123 359.554 173.076C358.827 173.033 358.295 173.009 357.961 173.009C357.624 173.009 357.076 173.033 356.32 173.076C355.561 173.123 354.745 173.175 353.872 173.237C353.782 173.266 353.699 173.28 353.623 173.28H353.419C352.997 173.28 352.788 173.099 352.788 172.738C352.788 172.496 352.871 172.34 353.037 172.264C353.201 172.188 353.571 172.122 354.142 172.059C354.595 172.031 354.963 171.969 355.25 171.879C355.534 171.789 355.762 171.623 355.928 171.381C356.092 171.139 356.199 170.801 356.244 170.365C356.289 169.928 356.31 169.349 356.31 168.622V157.817C356.31 156.763 356.213 156.07 356.018 155.737C355.822 155.405 355.378 155.239 354.685 155.239H353.782C353.481 155.239 353.329 155.134 353.329 154.926C353.329 154.712 353.391 154.579 353.511 154.517C353.63 154.455 354.021 154.322 354.685 154.109C355.226 153.9 355.693 153.686 356.087 153.478C356.481 153.269 356.83 153.046 357.135 152.823C357.441 152.594 357.716 152.338 357.961 152.053C358.205 151.768 358.449 151.441 358.694 151.08C358.966 150.691 359.18 150.492 359.334 150.492C359.547 150.492 359.654 150.705 359.654 151.128V154.337Z" fill="#231F20"/>
<path d="M376.05 170.749C375.808 171.082 375.672 171.276 375.644 171.338C375.613 171.395 375.599 171.457 375.599 171.518C375.599 171.789 375.974 171.922 376.728 171.922H382.147C383.653 171.922 384.827 171.78 385.671 171.495C386.514 171.21 387.147 170.721 387.569 170.023C387.78 169.753 387.953 169.458 388.088 169.144C388.223 168.827 388.427 168.29 388.697 167.54C388.819 167.236 388.985 167.084 389.196 167.084C389.376 167.084 389.495 167.146 389.556 167.269C389.615 167.388 389.646 167.659 389.646 168.081V168.418C389.646 168.584 389.63 169.092 389.601 169.933C389.57 170.085 389.556 170.299 389.556 170.569V172.06C389.556 172.843 389.314 173.237 388.833 173.237H388.563C388.441 173.237 388.306 173.218 388.155 173.19L387.071 173.147L385.356 173.099H371.804C371.292 173.099 370.967 173.076 370.832 173.033C370.697 172.986 370.628 172.843 370.628 172.601C370.628 172.544 370.652 172.473 370.697 172.397C370.742 172.326 370.839 172.164 370.991 171.922L384.497 153.838C384.706 153.568 384.813 153.373 384.813 153.25C384.813 153.102 384.737 153.003 384.587 152.955C384.436 152.912 384.12 152.889 383.639 152.889H378.49C377.496 152.889 376.756 152.922 376.275 152.979C375.794 153.041 375.343 153.193 374.921 153.43C374.498 153.672 374.093 153.967 373.702 154.313C373.308 154.66 373.007 155.002 372.798 155.329C372.618 155.662 372.473 155.875 372.369 155.965C372.262 156.055 372.134 156.098 371.984 156.098C371.714 156.098 371.576 155.979 371.576 155.738C371.576 155.619 371.624 155.438 371.714 155.196L373.384 150.311C373.566 149.798 373.792 149.542 374.062 149.542C374.363 149.542 374.513 149.817 374.513 150.358C374.513 150.838 374.657 151.189 374.942 151.398C375.229 151.607 375.718 151.716 376.41 151.716H388.472L389.196 151.669C389.495 151.669 389.646 151.806 389.646 152.077C389.646 152.286 389.495 152.59 389.196 152.979L376.05 170.749Z" fill="#231F20"/>
<path d="M400.625 164.421C399.569 164.962 398.763 165.603 398.208 166.339C397.648 167.079 397.371 167.887 397.371 168.76C397.371 169.633 397.672 170.341 398.274 170.882C398.877 171.428 399.69 171.699 400.715 171.699C401.588 171.699 402.43 171.523 403.243 171.177C404.057 170.83 404.763 170.312 405.366 169.619C405.788 169.164 406.082 168.713 406.248 168.261C406.412 167.811 406.497 167.269 406.497 166.633V162.474C406.497 161.933 406.376 161.662 406.134 161.662C406.075 161.662 406.022 161.677 405.978 161.705C405.932 161.738 405.757 161.828 405.458 161.976L400.625 164.421ZM409.839 168.171C409.839 169.259 409.981 170.094 410.268 170.683C410.552 171.267 410.982 171.561 411.556 171.561C411.885 171.561 412.158 171.504 412.369 171.381C412.578 171.262 412.91 170.991 413.363 170.569C413.512 170.417 413.647 170.341 413.769 170.341C413.979 170.341 414.084 170.465 414.084 170.702C414.084 170.972 413.927 171.286 413.61 171.628C413.294 171.979 412.896 172.302 412.414 172.601C411.93 172.905 411.428 173.161 410.901 173.37C410.372 173.579 409.915 173.688 409.523 173.688C408.3 173.688 407.334 172.724 406.632 170.792C406.511 170.369 406.331 170.161 406.089 170.161C405.999 170.161 405.819 170.279 405.548 170.522C404.524 171.575 403.357 172.42 402.048 173.052C400.736 173.688 399.51 174.001 398.364 174.001C397.07 174.001 395.986 173.626 395.113 172.872C394.238 172.121 393.804 171.201 393.804 170.113C393.804 168.879 394.323 167.749 395.362 166.723C396.401 165.698 398.094 164.615 400.442 163.471L405.23 161.164C405.743 160.922 406.082 160.675 406.248 160.419C406.412 160.162 406.497 159.763 406.497 159.217V155.875C406.497 154.517 406.262 153.544 405.795 152.955C405.328 152.371 404.555 152.077 403.468 152.077C402.114 152.077 401 152.39 400.127 153.027C399.254 153.658 398.486 154.712 397.824 156.188C397.523 156.853 397.274 157.29 397.077 157.499C396.882 157.712 396.574 157.922 396.152 158.135C395.398 158.434 394.798 158.586 394.344 158.586C393.953 158.586 393.759 158.405 393.759 158.045C393.759 157.228 394.081 156.407 394.731 155.581C395.381 154.75 396.218 154.014 397.245 153.364C398.272 152.718 399.427 152.182 400.71 151.759C401.993 151.336 403.269 151.127 404.538 151.127C406.44 151.127 407.892 151.55 408.888 152.39C409.25 152.723 409.5 153.102 409.634 153.52C409.77 153.943 409.839 154.579 409.839 155.419V168.171Z" fill="#231F20"/>
<path d="M432.694 166.5C432.182 167.796 431.926 168.85 431.926 169.662C431.926 170.355 432.168 170.939 432.649 171.404C433.131 171.87 433.733 172.103 434.456 172.103C435.149 172.103 435.894 171.931 436.693 171.585C437.49 171.238 438.303 170.754 439.131 170.137C439.959 169.52 440.782 168.784 441.593 167.925C442.406 167.065 443.161 166.106 443.853 165.052C444.273 164.421 444.674 163.728 445.049 162.973C445.426 162.218 445.758 161.482 446.042 160.756C446.329 160.034 446.555 159.346 446.72 158.7C446.886 158.049 446.969 157.485 446.969 157.005C446.969 156.492 446.924 156.108 446.834 155.851C446.744 155.595 446.502 155.168 446.111 154.56C445.689 153.962 445.477 153.311 445.477 152.618C445.477 152.044 445.651 151.55 445.997 151.127C446.343 150.705 446.744 150.491 447.195 150.491C447.707 150.491 448.15 150.824 448.528 151.489C448.905 152.153 449.092 152.951 449.092 153.886C449.092 154.788 448.957 155.799 448.687 156.915C448.414 158.031 448.039 159.175 447.557 160.347C447.074 161.525 446.502 162.693 445.841 163.856C445.176 165.014 444.455 166.078 443.673 167.042C441.956 169.211 440.177 170.863 438.342 171.993C436.503 173.123 434.698 173.688 432.922 173.688C431.506 173.688 430.429 173.351 429.692 172.672C428.952 171.993 428.584 171.025 428.584 169.762C428.584 168.741 428.976 167.265 429.758 165.342L433.688 155.69C433.809 155.358 433.906 155.101 433.982 154.921C434.058 154.74 434.117 154.608 434.163 154.517C434.207 154.422 434.231 154.351 434.231 154.289V154.109C434.231 153.63 434.006 153.387 433.553 153.387C433.311 153.387 433.012 153.501 432.649 153.724C432.289 153.953 431.888 154.252 431.454 154.631C431.015 155.006 430.586 155.438 430.166 155.918C429.744 156.402 429.367 156.882 429.037 157.366C428.826 157.698 428.629 157.865 428.449 157.865C428.238 157.865 428.134 157.726 428.134 157.456C428.134 157.366 428.2 157.2 428.335 156.957C428.471 156.716 428.653 156.454 428.878 156.17C429.104 155.88 429.336 155.581 429.578 155.262C429.82 154.945 430.06 154.669 430.301 154.427C431.295 153.425 432.341 152.595 433.441 151.935C434.539 151.275 435.436 150.947 436.129 150.947C436.641 150.947 437.039 151.104 437.326 151.422C437.611 151.735 437.753 152.167 437.753 152.708C437.753 153.069 437.694 153.52 437.573 154.066C437.452 154.608 437.286 155.135 437.077 155.647L432.694 166.5Z" fill="#231F20"/>
<path d="M481.031 172.15C480.879 172.544 480.713 172.8 480.533 172.919C480.353 173.038 480.021 173.1 479.539 173.1H469.783L466.396 173.052C465.521 173.052 464.748 173.061 464.069 173.076C463.391 173.095 462.63 173.128 461.788 173.19L460.569 173.237C460.116 173.237 459.89 173.1 459.89 172.829C459.89 172.648 459.914 172.511 459.959 172.421C460.004 172.331 460.094 172.254 460.229 172.198C460.365 172.135 460.561 172.088 460.815 172.06C461.071 172.031 461.411 171.998 461.833 171.969C462.376 171.941 462.819 171.865 463.166 171.742C463.512 171.623 463.82 171.395 464.091 171.063C464.364 170.735 464.617 170.26 464.859 169.638C465.101 169.021 465.357 168.214 465.628 167.222L471.319 148.683C471.649 147.572 471.867 146.802 471.974 146.38C472.079 145.957 472.133 145.625 472.133 145.383C472.133 144.813 471.891 144.419 471.409 144.21C471.258 144.149 471.071 144.106 470.845 144.072C470.62 144.044 470.25 144.03 469.738 144.03C469.135 143.996 468.744 143.945 468.564 143.869C468.383 143.792 468.293 143.636 468.293 143.393C468.293 142.971 468.592 142.762 469.197 142.762C469.406 142.762 469.586 142.777 469.738 142.805C470.129 142.838 470.573 142.862 471.071 142.876C471.568 142.89 472.048 142.905 472.515 142.919C472.982 142.938 473.435 142.952 473.871 142.966C474.308 142.98 474.676 142.99 474.979 142.99C475.579 142.99 476.236 142.98 476.942 142.966C477.649 142.952 478.349 142.914 479.044 142.853L480.263 142.805C480.713 142.805 480.941 142.943 480.941 143.213C480.941 143.546 480.828 143.764 480.602 143.869C480.377 143.978 479.841 144.044 478.999 144.072C478.456 144.106 478.005 144.177 477.642 144.301C477.282 144.419 476.966 144.652 476.693 144.998C476.423 145.345 476.174 145.82 475.949 146.423C475.724 147.026 475.458 147.828 475.159 148.82L468.744 169.89C468.653 170.189 468.592 170.407 468.564 170.545C468.533 170.683 468.518 170.826 468.518 170.973C468.518 171.637 469 171.969 469.963 171.969H471.319C472.404 171.969 473.276 171.96 473.938 171.946C474.602 171.932 475.159 171.894 475.61 171.832C476.063 171.775 476.447 171.685 476.762 171.561C477.078 171.442 477.431 171.276 477.823 171.063C478.456 170.735 479.058 170.251 479.63 169.62C480.201 168.983 480.685 168.262 481.077 167.45C481.378 166.847 481.579 166.481 481.686 166.363C481.79 166.244 481.935 166.182 482.115 166.182C482.445 166.182 482.611 166.348 482.611 166.681C482.611 166.89 482.552 167.132 482.431 167.403L481.031 172.15Z" fill="#231F20"/>
<path d="M496.751 142.9C497.173 142.9 497.534 143.061 497.835 143.394C498.136 143.726 498.288 144.149 498.288 144.661C498.288 145.051 498.212 145.435 498.062 145.815C497.91 146.19 497.714 146.532 497.474 146.831C497.232 147.135 496.955 147.372 496.639 147.553C496.321 147.733 496.013 147.828 495.712 147.828C495.262 147.828 494.898 147.662 494.628 147.33C494.358 146.997 494.223 146.574 494.223 146.062C494.223 145.25 494.476 144.519 494.988 143.868C495.501 143.223 496.089 142.9 496.751 142.9ZM489.116 175.089C488.486 177.14 487.793 178.787 487.039 180.041C486.287 181.289 485.383 182.291 484.33 183.046C482.824 184.133 481.273 184.674 479.677 184.674C478.593 184.674 477.704 184.442 477.011 183.971C476.319 183.506 475.973 182.927 475.973 182.234C475.973 181.749 476.138 181.341 476.468 181.014C476.8 180.681 477.192 180.515 477.644 180.515C478.005 180.515 478.337 180.634 478.639 180.876C478.94 181.118 479.255 181.522 479.587 182.096C479.919 182.638 480.204 183.008 480.446 183.202C480.685 183.402 481.017 183.497 481.439 183.497C482.132 183.497 482.703 183.198 483.154 182.595C483.306 182.443 483.427 182.3 483.517 182.162C483.607 182.03 483.704 181.826 483.809 181.555C483.915 181.284 484.05 180.881 484.217 180.354C484.383 179.827 484.601 179.082 484.871 178.118L491.737 155.647C491.827 155.315 491.889 155.082 491.917 154.945C491.948 154.812 491.962 154.669 491.962 154.517C491.962 153.976 491.768 153.706 491.376 153.706C491.196 153.706 490.94 153.8 490.608 153.995C490.276 154.195 489.916 154.456 489.524 154.788C489.133 155.12 488.735 155.505 488.327 155.941C487.921 156.378 487.537 156.825 487.174 157.276C486.844 157.698 486.572 157.907 486.363 157.907C486.152 157.907 486.045 157.802 486.045 157.594C486.045 157.38 486.225 157.029 486.588 156.53C486.949 156.032 487.43 155.481 488.032 154.878C489.178 153.672 490.314 152.718 491.443 152.006C492.572 151.299 493.499 150.947 494.223 150.947C495.216 150.947 495.712 151.502 495.712 152.618C495.712 152.951 495.66 153.326 495.555 153.748C495.449 154.171 495.276 154.802 495.036 155.647L489.116 175.089Z" fill="#231F20"/>
<path d="M517.306 160.756C516.402 162.085 515.658 163.167 515.069 164.013C514.481 164.858 513.948 165.579 513.466 166.182C512.985 166.785 512.511 167.322 512.043 167.787C511.576 168.257 511.012 168.774 510.35 169.349C508.782 170.764 507.293 171.841 505.877 172.577C504.461 173.318 503.211 173.688 502.127 173.688C500.683 173.688 499.96 172.862 499.96 171.205C499.96 170.816 500.019 170.327 500.14 169.738C500.261 169.154 500.441 168.513 500.683 167.825L504.883 155.733C505.063 155.22 505.17 154.906 505.199 154.788C505.229 154.664 505.244 154.532 505.244 154.38C505.244 153.838 505.019 153.568 504.568 153.568C504.146 153.568 503.536 153.938 502.737 154.674C501.94 155.415 501.179 156.326 500.455 157.409C500.154 157.864 499.943 158.149 499.825 158.268C499.703 158.392 499.568 158.448 499.417 158.448C499.236 158.448 499.146 158.344 499.146 158.135C499.146 157.893 499.35 157.447 499.756 156.801C500.164 156.151 500.621 155.529 501.134 154.926C502.097 153.777 503.145 152.822 504.273 152.072C505.403 151.322 506.359 150.947 507.141 150.947C507.623 150.947 508 151.132 508.272 151.512C508.543 151.887 508.678 152.409 508.678 153.069C508.678 153.401 508.633 153.796 508.543 154.247C508.452 154.698 508.317 155.182 508.135 155.695L503.889 168.352C503.738 168.713 503.633 169.059 503.574 169.391C503.513 169.724 503.484 170.009 503.484 170.251C503.484 170.645 503.603 170.954 503.845 171.177C504.084 171.405 504.416 171.518 504.838 171.518C505.531 171.518 506.501 171.096 507.751 170.251C509 169.406 510.243 168.338 511.479 167.042C512.382 166.106 513.241 165.095 514.052 164.013C514.866 162.925 515.62 161.81 516.312 160.666C517.005 159.521 517.614 158.368 518.141 157.209C518.667 156.046 519.096 154.926 519.429 153.838L519.972 152.029C520.121 151.517 520.256 151.208 520.377 151.104C520.498 151 520.724 150.947 521.056 150.947H522.77C523.192 150.947 523.404 151.094 523.404 151.398C523.404 151.517 523.397 151.621 523.382 151.716C523.366 151.806 523.342 151.911 523.314 152.029L518.3 168.49C518.089 169.121 517.982 169.605 517.982 169.933C517.982 170.598 518.255 170.93 518.795 170.93C519.068 170.93 519.412 170.792 519.834 170.522C520.256 170.251 520.709 169.895 521.191 169.458C521.672 169.021 522.147 168.508 522.614 167.925C523.079 167.336 523.508 166.723 523.902 166.092C524.11 165.731 524.307 165.551 524.488 165.551C524.698 165.551 524.803 165.655 524.803 165.864C524.803 165.987 524.72 166.197 524.556 166.5C524.39 166.799 524.186 167.141 523.947 167.516C523.705 167.891 523.427 168.285 523.109 168.689C522.794 169.097 522.486 169.467 522.184 169.8C521.642 170.369 521.084 170.901 520.512 171.381C519.941 171.865 519.367 172.269 518.795 172.601C518.224 172.933 517.673 173.199 517.147 173.394C516.621 173.589 516.146 173.688 515.724 173.688C515.302 173.688 514.963 173.527 514.709 173.213C514.453 172.896 514.325 172.482 514.325 171.97C514.325 171.518 514.384 170.968 514.505 170.317C514.626 169.672 514.806 168.955 515.046 168.171L517.306 160.756Z" fill="#231F20"/>
<path d="M543.911 153.117C542.737 153.117 541.345 153.777 539.732 155.106C538.122 156.431 536.533 158.225 534.968 160.485C533.613 162.474 532.575 164.245 531.851 165.798C531.128 167.35 530.767 168.622 530.767 169.62C530.767 170.612 531.076 171.391 531.692 171.946C532.309 172.506 533.191 172.781 534.335 172.781C535.269 172.781 536.225 172.563 537.204 172.126C538.181 171.689 539.123 171.096 540.027 170.341C540.93 169.586 541.789 168.708 542.602 167.697C543.416 166.686 544.123 165.608 544.725 164.464C545.327 163.32 545.801 162.137 546.148 160.912C546.494 159.692 546.667 158.496 546.667 157.318C546.667 155.965 546.425 154.926 545.944 154.199C545.462 153.478 544.784 153.117 543.911 153.117ZM532.71 161.933C534.937 158.406 537.152 155.695 539.35 153.796C541.547 151.896 543.579 150.947 545.448 150.947C546.892 150.947 548.069 151.54 548.97 152.732C549.874 153.924 550.327 155.452 550.327 157.318C550.327 159.398 549.874 161.43 548.97 163.4C548.069 165.375 546.879 167.132 545.403 168.67C543.928 170.208 542.225 171.433 540.299 172.354C538.371 173.27 536.398 173.731 534.38 173.731C532.392 173.731 530.834 173.228 529.705 172.217C528.576 171.21 528.012 169.843 528.012 168.124C528.012 167.796 528.026 167.478 528.057 167.175C528.085 166.876 528.14 166.538 528.216 166.158C528.289 165.784 528.396 165.337 528.531 164.825C528.666 164.312 528.853 163.68 529.095 162.925L534.607 144.98C534.757 144.467 534.861 144.068 534.923 143.778C534.982 143.493 535.013 143.261 535.013 143.08C535.013 142.715 534.902 142.439 534.674 142.24C534.448 142.046 534.154 141.965 533.794 141.993C533.493 142.022 533.312 142.04 533.251 142.04H532.935C532.575 142.04 532.326 142.003 532.19 141.927C532.056 141.851 531.987 141.723 531.987 141.542C531.987 141.001 532.589 140.745 533.794 140.773C534.577 140.835 535.411 140.745 536.301 140.502C537.188 140.26 537.904 139.928 538.447 139.506C538.656 139.387 538.822 139.325 538.943 139.325C539.244 139.325 539.396 139.491 539.396 139.823C539.396 140.032 539.334 140.308 539.213 140.635L532.71 161.933Z" fill="#231F20"/>
<path d="M560.309 145.112C560.549 144.391 560.669 143.892 560.669 143.622C560.729 142.867 560.084 142.491 558.727 142.491H558.049C557.598 142.491 557.373 142.311 557.373 141.95C557.373 141.708 557.47 141.547 557.667 141.476C557.861 141.399 558.246 141.347 558.818 141.314C560.022 141.224 561.099 141.029 562.048 140.726C562.996 140.426 563.772 140.018 564.374 139.505C564.585 139.358 564.751 139.282 564.872 139.282C564.962 139.282 565.043 139.325 565.119 139.415C565.195 139.505 565.233 139.595 565.233 139.686C565.233 139.838 565.187 140.051 565.097 140.322L556.965 166.994C556.785 167.568 556.643 168.015 556.536 168.328C556.431 168.646 556.356 168.893 556.311 169.073C556.265 169.259 556.244 169.392 556.244 169.482V169.8C556.244 170.341 556.453 170.612 556.875 170.612C557.086 170.612 557.373 170.484 557.734 170.227C558.096 169.971 558.471 169.638 558.862 169.235C559.253 168.826 559.654 168.361 560.06 167.834C560.466 167.307 560.821 166.771 561.123 166.225C561.362 165.807 561.604 165.593 561.843 165.593C562.026 165.593 562.116 165.717 562.116 165.954C562.116 166.196 561.995 166.552 561.754 167.018C561.514 167.488 561.151 168.02 560.669 168.622C560.129 169.349 559.555 170.018 558.952 170.64C558.35 171.267 557.764 171.808 557.193 172.264C556.619 172.724 556.069 173.076 555.542 173.323C555.015 173.564 554.556 173.688 554.166 173.688C553.624 173.688 553.232 173.527 552.99 173.204C552.751 172.886 552.63 172.359 552.63 171.623C552.63 171.224 552.689 170.702 552.81 170.051C552.931 169.401 553.111 168.732 553.353 168.034L560.309 145.112Z" fill="#231F20"/>
<path d="M576.389 142.9C576.811 142.9 577.172 143.061 577.473 143.394C577.774 143.726 577.926 144.149 577.926 144.661C577.926 145.051 577.85 145.435 577.701 145.815C577.549 146.19 577.352 146.532 577.112 146.831C576.871 147.135 576.593 147.372 576.277 147.553C575.96 147.733 575.651 147.828 575.35 147.828C574.9 147.828 574.537 147.662 574.266 147.33C573.996 146.997 573.861 146.574 573.861 146.062C573.861 145.25 574.115 144.519 574.627 143.868C575.139 143.223 575.727 142.9 576.389 142.9ZM568.755 175.089C568.124 177.14 567.431 178.787 566.677 180.041C565.925 181.289 565.021 182.291 563.969 183.046C562.463 184.133 560.911 184.674 559.315 184.674C558.231 184.674 557.342 184.442 556.649 183.971C555.957 183.506 555.611 182.927 555.611 182.234C555.611 181.749 555.777 181.341 556.106 181.014C556.438 180.681 556.83 180.515 557.283 180.515C557.643 180.515 557.975 180.634 558.277 180.876C558.578 181.118 558.893 181.522 559.225 182.096C559.557 182.638 559.842 183.008 560.084 183.202C560.323 183.402 560.655 183.497 561.077 183.497C561.77 183.497 562.341 183.198 562.792 182.595C562.944 182.443 563.065 182.3 563.155 182.162C563.245 182.03 563.342 181.826 563.447 181.555C563.554 181.284 563.689 180.881 563.855 180.354C564.021 179.827 564.239 179.082 564.509 178.118L571.375 155.647C571.465 155.315 571.527 155.082 571.555 154.945C571.586 154.812 571.601 154.669 571.601 154.517C571.601 153.976 571.406 153.706 571.015 153.706C570.835 153.706 570.578 153.8 570.246 153.995C569.914 154.195 569.554 154.456 569.163 154.788C568.771 155.12 568.373 155.505 567.965 155.941C567.559 156.378 567.175 156.825 566.812 157.276C566.483 157.698 566.21 157.907 566.001 157.907C565.79 157.907 565.683 157.802 565.683 157.594C565.683 157.38 565.863 157.029 566.226 156.53C566.587 156.032 567.068 155.481 567.671 154.878C568.816 153.672 569.952 152.718 571.081 152.006C572.21 151.299 573.137 150.947 573.861 150.947C574.855 150.947 575.35 151.502 575.35 152.618C575.35 152.951 575.298 153.326 575.193 153.748C575.087 154.171 574.914 154.802 574.674 155.647L568.755 175.089Z" fill="#231F20"/>
<path d="M594.822 151.897C593.344 151.897 591.817 152.423 590.235 153.478C588.655 154.531 587.097 156.07 585.56 158.087C584.958 158.842 584.4 159.678 583.888 160.599C583.376 161.52 582.925 162.436 582.534 163.357C582.142 164.274 581.834 165.156 581.609 166.002C581.381 166.847 581.27 167.583 581.27 168.214C581.27 169.059 581.478 169.762 581.901 170.317C582.323 170.877 582.849 171.158 583.482 171.158C585.47 171.158 588.33 168.879 592.066 164.326C592.908 163.305 593.683 162.284 594.392 161.278C595.099 160.267 595.701 159.317 596.199 158.429C596.695 157.541 597.087 156.735 597.373 156.008C597.658 155.286 597.803 154.698 597.803 154.247C597.803 153.554 597.523 152.989 596.965 152.552C596.408 152.115 595.694 151.897 594.822 151.897ZM596.221 159.987C593.451 164.449 590.792 167.849 588.247 170.184C585.703 172.52 583.392 173.688 581.315 173.688C580.169 173.688 579.244 173.237 578.535 172.33C577.829 171.428 577.475 170.265 577.475 168.85C577.475 167.796 577.648 166.681 577.995 165.503C578.341 164.326 578.822 163.153 579.439 161.976C580.055 160.803 580.786 159.654 581.63 158.543C582.472 157.428 583.407 156.416 584.431 155.51C586.118 154.033 587.842 152.903 589.604 152.12C591.366 151.337 593.088 150.947 594.776 150.947C595.649 150.947 596.342 151.056 596.854 151.284C597.364 151.512 597.907 151.954 598.479 152.618L598.841 151.531C599.022 150.838 599.382 150.491 599.926 150.491H601.597C602.048 150.491 602.274 150.629 602.274 150.9C602.274 150.99 602.242 151.128 602.183 151.308L596.854 168.803C596.792 168.983 596.747 169.173 596.719 169.368C596.688 169.567 596.674 169.738 596.674 169.89C596.674 170.313 596.838 170.521 597.17 170.521C597.62 170.521 598.261 170.113 599.088 169.301C599.918 168.489 600.722 167.45 601.505 166.182C601.657 165.85 601.837 165.684 602.048 165.684C602.29 165.684 602.408 165.821 602.408 166.092C602.408 166.272 602.318 166.543 602.138 166.904C601.958 167.27 601.716 167.659 601.415 168.081C601.114 168.504 600.784 168.941 600.421 169.391C600.061 169.843 599.684 170.265 599.292 170.659C598.358 171.595 597.426 172.33 596.491 172.871C595.559 173.417 594.746 173.688 594.053 173.688C593.209 173.688 592.789 173.237 592.789 172.33C592.789 172.031 592.818 171.675 592.879 171.267C592.938 170.863 593.028 170.493 593.15 170.161L596.221 159.987Z" fill="#231F20"/>
<path d="M613.062 164.283C614.025 162.745 614.831 161.482 615.479 160.485C616.126 159.493 616.707 158.652 617.219 157.973C617.732 157.299 618.228 156.711 618.711 156.212C619.193 155.714 619.75 155.168 620.383 154.56C621.678 153.387 622.945 152.49 624.178 151.873C625.416 151.256 626.588 150.947 627.702 150.947C628.637 150.947 629.382 151.194 629.941 151.692C630.496 152.191 630.776 152.861 630.776 153.706C630.776 154.033 630.714 154.451 630.596 154.945C630.473 155.443 630.292 156.008 630.05 156.644L625.72 168.081C625.478 168.656 625.326 169.059 625.264 169.301C625.207 169.543 625.174 169.772 625.174 169.98C625.174 170.612 625.478 170.93 626.08 170.93C626.35 170.93 626.687 170.811 627.095 170.569C627.503 170.327 627.944 169.995 628.428 169.572C628.907 169.15 629.382 168.66 629.851 168.105C630.316 167.545 630.762 166.966 631.184 166.363C631.392 166.03 631.592 165.864 631.772 165.864C632.009 165.864 632.132 165.987 632.132 166.225C632.132 166.32 632.066 166.491 631.929 166.747C631.791 167.003 631.611 167.298 631.388 167.63C631.16 167.962 630.895 168.314 630.596 168.689C630.297 169.069 629.993 169.406 629.694 169.71C628.518 170.972 627.404 171.955 626.35 172.649C625.297 173.342 624.415 173.688 623.704 173.688C622.394 173.688 621.74 172.919 621.74 171.381C621.74 170.868 621.84 170.222 622.034 169.439C622.233 168.656 622.494 167.796 622.826 166.861L626.668 156.644C626.815 156.279 626.929 155.913 627.005 155.533C627.081 155.158 627.119 154.802 627.119 154.47C627.119 153.416 626.559 152.889 625.445 152.889C624.002 152.889 622.224 153.99 620.115 156.188C619.513 156.825 618.979 157.418 618.512 157.973C618.045 158.534 617.601 159.089 617.179 159.65C616.757 160.205 616.351 160.803 615.96 161.435C615.569 162.066 615.147 162.759 614.696 163.514C613.821 165.052 613.055 166.491 612.391 167.834C611.729 169.173 611.262 170.279 610.991 171.158L610.721 171.97C610.51 172.724 610.119 173.099 609.547 173.099H607.875C607.512 173.099 607.332 172.933 607.332 172.601C607.332 172.482 607.339 172.378 607.356 172.287C607.37 172.197 607.394 172.088 607.422 171.97L612.075 156.734C612.346 155.828 612.483 155.135 612.483 154.655C612.483 153.872 612.18 153.477 611.58 153.477C611.338 153.477 611.015 153.615 610.607 153.886C610.202 154.156 609.78 154.503 609.343 154.926C608.907 155.348 608.485 155.804 608.079 156.302C607.671 156.801 607.332 157.29 607.062 157.774C606.851 158.135 606.656 158.315 606.473 158.315C606.234 158.315 606.113 158.211 606.113 157.997C606.113 157.879 606.203 157.651 606.383 157.319C606.563 156.991 606.791 156.625 607.062 156.236C607.332 155.842 607.64 155.438 607.987 155.016C608.333 154.593 608.672 154.218 609.004 153.886C610.961 151.925 612.612 150.947 613.954 150.947C615.26 150.947 615.915 151.745 615.915 153.34C615.915 154.366 615.707 155.585 615.292 157.005L613.062 164.283Z" fill="#231F20"/>
<path d="M646.633 142.9C647.055 142.9 647.416 143.061 647.719 143.394C648.018 143.726 648.17 144.149 648.17 144.661C648.17 145.051 648.094 145.435 647.942 145.815C647.79 146.19 647.596 146.532 647.354 146.831C647.117 147.135 646.837 147.372 646.519 147.553C646.206 147.733 645.893 147.828 645.594 147.828C645.144 147.828 644.783 147.662 644.508 147.33C644.237 146.997 644.105 146.574 644.105 146.062C644.105 145.25 644.361 144.519 644.873 143.868C645.381 143.223 645.969 142.9 646.633 142.9ZM641.619 155.604C641.709 155.367 641.771 155.154 641.799 154.973C641.828 154.792 641.847 154.626 641.847 154.475C641.847 153.929 641.648 153.658 641.259 153.658C641.079 153.658 640.827 153.758 640.514 153.952C640.196 154.147 639.841 154.403 639.451 154.722C639.058 155.035 638.659 155.415 638.252 155.851C637.848 156.288 637.464 156.749 637.104 157.228C636.771 157.651 636.501 157.865 636.288 157.865C636.079 157.865 635.975 157.741 635.975 157.499C635.975 157.319 636.16 156.972 636.539 156.459C636.914 155.951 637.388 155.391 637.962 154.788C639.105 153.592 640.234 152.642 641.349 151.944C642.464 151.251 643.379 150.9 644.105 150.9C645.096 150.9 645.594 151.469 645.594 152.614C645.594 152.946 645.547 153.345 645.457 153.81C645.367 154.275 645.201 154.883 644.963 155.638L641.482 167.004C641.301 167.578 641.159 168.01 641.055 168.314C640.95 168.613 640.875 168.855 640.827 169.036C640.784 169.216 640.751 169.359 640.737 169.463C640.723 169.567 640.713 169.681 640.713 169.8C640.713 170.341 640.927 170.612 641.349 170.612C641.558 170.612 641.847 170.484 642.207 170.227C642.568 169.971 642.943 169.634 643.336 169.211C643.725 168.789 644.124 168.323 644.532 167.811C644.94 167.298 645.291 166.771 645.594 166.225C645.836 165.807 646.073 165.593 646.315 165.593C646.495 165.593 646.585 165.717 646.585 165.954C646.585 166.439 646.107 167.326 645.144 168.623C644.029 170.132 642.867 171.357 641.662 172.288C640.457 173.218 639.451 173.688 638.636 173.688C637.616 173.688 637.104 173.023 637.104 171.694C637.104 171.3 637.161 170.797 637.284 170.175C637.403 169.558 637.583 168.855 637.825 168.067L641.619 155.604Z" fill="#231F20"/>
</svg>
